G04 #@! TF.GenerationSoftware,KiCad,Pcbnew,10.0.3*
G04 #@! TF.CreationDate,2026-09-06T02:02:07+02:00*
G04 #@! TF.ProjectId,PCB-03,5043422d-3033-42e6-9b69-6361645f7063,rev?*
G04 #@! TF.SameCoordinates,Original*
G04 #@! TF.FileFunction,Copper,L1,Top*
G04 #@! TF.FilePolarity,Positive*
%FSLAX46Y46*%
G04 Gerber Fmt 4.6, Leading zero omitted, Abs format (unit mm)*
G04 Created by KiCad (PCBNEW 10.0.3) date 2026-09-06 02:02:07*
%MOMM*%
%LPD*%
G01*
G04 APERTURE LIST*
G04 Aperture macros list*
%AMRoundRect*
0 Rectangle with rounded corners*
0 $1 Rounding radius*
0 $2 $3 $4 $5 $6 $7 $8 $9 X,Y pos of 4 corners*
0 Add a 4 corners polygon primitive as box body*
4,1,4,$2,$3,$4,$5,$6,$7,$8,$9,$2,$3,0*
0 Add four circle primitives for the rounded corners*
1,1,$1+$1,$2,$3*
1,1,$1+$1,$4,$5*
1,1,$1+$1,$6,$7*
1,1,$1+$1,$8,$9*
0 Add four rect primitives between the rounded corners*
20,1,$1+$1,$2,$3,$4,$5,0*
20,1,$1+$1,$4,$5,$6,$7,0*
20,1,$1+$1,$6,$7,$8,$9,0*
20,1,$1+$1,$8,$9,$2,$3,0*%
G04 Aperture macros list end*
G04 #@! TA.AperFunction,ComponentPad*
%ADD10R,1.700000X1.700000*%
G04 #@! TD*
G04 #@! TA.AperFunction,ComponentPad*
%ADD11C,1.700000*%
G04 #@! TD*
G04 #@! TA.AperFunction,SMDPad,CuDef*
%ADD12RoundRect,0.250000X-0.337500X-0.475000X0.337500X-0.475000X0.337500X0.475000X-0.337500X0.475000X0*%
G04 #@! TD*
G04 #@! TA.AperFunction,SMDPad,CuDef*
%ADD13RoundRect,0.250000X-0.412500X-0.650000X0.412500X-0.650000X0.412500X0.650000X-0.412500X0.650000X0*%
G04 #@! TD*
G04 #@! TA.AperFunction,ComponentPad*
%ADD14R,1.350000X1.350000*%
G04 #@! TD*
G04 #@! TA.AperFunction,ComponentPad*
%ADD15C,1.350000*%
G04 #@! TD*
G04 #@! TA.AperFunction,ViaPad*
%ADD16C,0.800000*%
G04 #@! TD*
G04 #@! TA.AperFunction,Conductor*
%ADD17C,0.500000*%
G04 #@! TD*
G04 #@! TA.AperFunction,Conductor*
%ADD18C,0.300000*%
G04 #@! TD*
G04 APERTURE END LIST*
D10*
X156220000Y-77120000D03*
D11*
X156220000Y-61880000D03*
X158760000Y-77120000D03*
X158760000Y-61880000D03*
X161300000Y-77120000D03*
X161300000Y-61880000D03*
X163840000Y-77120000D03*
X163840000Y-61880000D03*
X166380000Y-77120000D03*
X166380000Y-61880000D03*
X168920000Y-77120000D03*
X168920000Y-61880000D03*
X171460000Y-77120000D03*
X171460000Y-61880000D03*
X174000000Y-77120000D03*
X174000000Y-61880000D03*
D12*
X156962500Y-82000000D03*
X159037500Y-82000000D03*
D13*
X156687500Y-88000000D03*
X159812500Y-88000000D03*
D14*
X151500000Y-83000000D03*
D15*
X153500000Y-83000000D03*
X151500000Y-85000000D03*
X153500000Y-85000000D03*
X151500000Y-87000000D03*
X153500000Y-87000000D03*
X151500000Y-89000000D03*
X153500000Y-89000000D03*
D16*
X155962500Y-83000000D03*
X156687500Y-89000000D03*
D17*
X156687500Y-89000000D02*
X156687500Y-88000000D01*
X155962500Y-83000000D02*
X156962500Y-82000000D01*
X153500000Y-83000000D02*
X155962500Y-83000000D01*
D18*
X150000000Y-90000000D02*
X151500000Y-91500000D01*
X150000000Y-84500000D02*
X150000000Y-90000000D01*
X174500000Y-90500000D02*
X174500000Y-77620000D01*
X174500000Y-77620000D02*
X174000000Y-77120000D01*
X151500000Y-83000000D02*
X150000000Y-84500000D01*
X173500000Y-91500000D02*
X174500000Y-90500000D01*
X151500000Y-91500000D02*
X173500000Y-91500000D01*
G04 #@! TA.AperFunction,Conductor*
G36*
X174852539Y-56280185D02*
G01*
X174898294Y-56332989D01*
X174909500Y-56384500D01*
X174909500Y-60875328D01*
X174889815Y-60942367D01*
X174837011Y-60988122D01*
X174767853Y-60998066D01*
X174712616Y-60975647D01*
X174602996Y-60896005D01*
X174441639Y-60813788D01*
X174441636Y-60813787D01*
X174269410Y-60757829D01*
X174090551Y-60729500D01*
X174090546Y-60729500D01*
X173909454Y-60729500D01*
X173909449Y-60729500D01*
X173730589Y-60757829D01*
X173558363Y-60813787D01*
X173558360Y-60813788D01*
X173397002Y-60896006D01*
X173250505Y-61002441D01*
X173250500Y-61002445D01*
X173122445Y-61130500D01*
X173122441Y-61130505D01*
X173016006Y-61277002D01*
X172933788Y-61438360D01*
X172933787Y-61438363D01*
X172877829Y-61610589D01*
X172852473Y-61770678D01*
X172822544Y-61833813D01*
X172763232Y-61870744D01*
X172693369Y-61869746D01*
X172635137Y-61831136D01*
X172607527Y-61770678D01*
X172593740Y-61683639D01*
X172582171Y-61610591D01*
X172538530Y-61476275D01*
X172526212Y-61438363D01*
X172526211Y-61438360D01*
X172487191Y-61361780D01*
X172443996Y-61277006D01*
X172369500Y-61174470D01*
X172337558Y-61130505D01*
X172337554Y-61130500D01*
X172209499Y-61002445D01*
X172209494Y-61002441D01*
X172062997Y-60896006D01*
X172062996Y-60896005D01*
X172062994Y-60896004D01*
X172011300Y-60869664D01*
X171901639Y-60813788D01*
X171901636Y-60813787D01*
X171729410Y-60757829D01*
X171550551Y-60729500D01*
X171550546Y-60729500D01*
X171369454Y-60729500D01*
X171369449Y-60729500D01*
X171190589Y-60757829D01*
X171018363Y-60813787D01*
X171018360Y-60813788D01*
X170857002Y-60896006D01*
X170710505Y-61002441D01*
X170710500Y-61002445D01*
X170582445Y-61130500D01*
X170582441Y-61130505D01*
X170476006Y-61277002D01*
X170393788Y-61438360D01*
X170393787Y-61438363D01*
X170337829Y-61610589D01*
X170312473Y-61770678D01*
X170282544Y-61833813D01*
X170223232Y-61870744D01*
X170153369Y-61869746D01*
X170095137Y-61831136D01*
X170067527Y-61770678D01*
X170053740Y-61683639D01*
X170042171Y-61610591D01*
X169998530Y-61476275D01*
X169986212Y-61438363D01*
X169986211Y-61438360D01*
X169947191Y-61361780D01*
X169903996Y-61277006D01*
X169829500Y-61174470D01*
X169797558Y-61130505D01*
X169797554Y-61130500D01*
X169669499Y-61002445D01*
X169669494Y-61002441D01*
X169522997Y-60896006D01*
X169522996Y-60896005D01*
X169522994Y-60896004D01*
X169471300Y-60869664D01*
X169361639Y-60813788D01*
X169361636Y-60813787D01*
X169189410Y-60757829D01*
X169010551Y-60729500D01*
X169010546Y-60729500D01*
X168829454Y-60729500D01*
X168829449Y-60729500D01*
X168650589Y-60757829D01*
X168478363Y-60813787D01*
X168478360Y-60813788D01*
X168317002Y-60896006D01*
X168170505Y-61002441D01*
X168170500Y-61002445D01*
X168042445Y-61130500D01*
X168042441Y-61130505D01*
X167936006Y-61277002D01*
X167853788Y-61438360D01*
X167853787Y-61438363D01*
X167797829Y-61610589D01*
X167772473Y-61770678D01*
X167742544Y-61833813D01*
X167683232Y-61870744D01*
X167613369Y-61869746D01*
X167555137Y-61831136D01*
X167527527Y-61770678D01*
X167513740Y-61683639D01*
X167502171Y-61610591D01*
X167458530Y-61476275D01*
X167446212Y-61438363D01*
X167446211Y-61438360D01*
X167407191Y-61361780D01*
X167363996Y-61277006D01*
X167289500Y-61174470D01*
X167257558Y-61130505D01*
X167257554Y-61130500D01*
X167129499Y-61002445D01*
X167129494Y-61002441D01*
X166982997Y-60896006D01*
X166982996Y-60896005D01*
X166982994Y-60896004D01*
X166931300Y-60869664D01*
X166821639Y-60813788D01*
X166821636Y-60813787D01*
X166649410Y-60757829D01*
X166470551Y-60729500D01*
X166470546Y-60729500D01*
X166289454Y-60729500D01*
X166289449Y-60729500D01*
X166110589Y-60757829D01*
X165938363Y-60813787D01*
X165938360Y-60813788D01*
X165777002Y-60896006D01*
X165630505Y-61002441D01*
X165630500Y-61002445D01*
X165502445Y-61130500D01*
X165502441Y-61130505D01*
X165396006Y-61277002D01*
X165313788Y-61438360D01*
X165313787Y-61438363D01*
X165257829Y-61610589D01*
X165232473Y-61770678D01*
X165202544Y-61833813D01*
X165143232Y-61870744D01*
X165073369Y-61869746D01*
X165015137Y-61831136D01*
X164987527Y-61770678D01*
X164973740Y-61683639D01*
X164962171Y-61610591D01*
X164918530Y-61476275D01*
X164906212Y-61438363D01*
X164906211Y-61438360D01*
X164867191Y-61361780D01*
X164823996Y-61277006D01*
X164749500Y-61174470D01*
X164717558Y-61130505D01*
X164717554Y-61130500D01*
X164589499Y-61002445D01*
X164589494Y-61002441D01*
X164442997Y-60896006D01*
X164442996Y-60896005D01*
X164442994Y-60896004D01*
X164391300Y-60869664D01*
X164281639Y-60813788D01*
X164281636Y-60813787D01*
X164109410Y-60757829D01*
X163930551Y-60729500D01*
X163930546Y-60729500D01*
X163749454Y-60729500D01*
X163749449Y-60729500D01*
X163570589Y-60757829D01*
X163398363Y-60813787D01*
X163398360Y-60813788D01*
X163237002Y-60896006D01*
X163090505Y-61002441D01*
X163090500Y-61002445D01*
X162962445Y-61130500D01*
X162962441Y-61130505D01*
X162856006Y-61277002D01*
X162773788Y-61438360D01*
X162773787Y-61438363D01*
X162717829Y-61610589D01*
X162692473Y-61770678D01*
X162662544Y-61833813D01*
X162603232Y-61870744D01*
X162533369Y-61869746D01*
X162475137Y-61831136D01*
X162447527Y-61770678D01*
X162433740Y-61683639D01*
X162422171Y-61610591D01*
X162378530Y-61476275D01*
X162366212Y-61438363D01*
X162366211Y-61438360D01*
X162327191Y-61361780D01*
X162283996Y-61277006D01*
X162209500Y-61174470D01*
X162177558Y-61130505D01*
X162177554Y-61130500D01*
X162049499Y-61002445D01*
X162049494Y-61002441D01*
X161902997Y-60896006D01*
X161902996Y-60896005D01*
X161902994Y-60896004D01*
X161851300Y-60869664D01*
X161741639Y-60813788D01*
X161741636Y-60813787D01*
X161569410Y-60757829D01*
X161390551Y-60729500D01*
X161390546Y-60729500D01*
X161209454Y-60729500D01*
X161209449Y-60729500D01*
X161030589Y-60757829D01*
X160858363Y-60813787D01*
X160858360Y-60813788D01*
X160697002Y-60896006D01*
X160550505Y-61002441D01*
X160550500Y-61002445D01*
X160422445Y-61130500D01*
X160422441Y-61130505D01*
X160316004Y-61277004D01*
X160248908Y-61408685D01*
X160200933Y-61459480D01*
X160133112Y-61476275D01*
X160066977Y-61453737D01*
X160023527Y-61399021D01*
X160020492Y-61390705D01*
X160011094Y-61361780D01*
X159914624Y-61172449D01*
X159875270Y-61118282D01*
X159875269Y-61118282D01*
X159242962Y-61750590D01*
X159225925Y-61687007D01*
X159160099Y-61572993D01*
X159067007Y-61479901D01*
X158952993Y-61414075D01*
X158889409Y-61397037D01*
X159521716Y-60764728D01*
X159467550Y-60725375D01*
X159278217Y-60628904D01*
X159076129Y-60563242D01*
X158866246Y-60530000D01*
X158653754Y-60530000D01*
X158443872Y-60563242D01*
X158443869Y-60563242D01*
X158241782Y-60628904D01*
X158052439Y-60725380D01*
X157998282Y-60764727D01*
X157998282Y-60764728D01*
X158630591Y-61397037D01*
X158567007Y-61414075D01*
X158452993Y-61479901D01*
X158359901Y-61572993D01*
X158294075Y-61687007D01*
X158277037Y-61750591D01*
X157644728Y-61118282D01*
X157644727Y-61118282D01*
X157605380Y-61172439D01*
X157508905Y-61361781D01*
X157499506Y-61390708D01*
X157460068Y-61448383D01*
X157395709Y-61475581D01*
X157326862Y-61463666D01*
X157275387Y-61416421D01*
X157271090Y-61408684D01*
X157247191Y-61361780D01*
X157203996Y-61277006D01*
X157129500Y-61174470D01*
X157097558Y-61130505D01*
X157097554Y-61130500D01*
X156969499Y-61002445D01*
X156969494Y-61002441D01*
X156845432Y-60912305D01*
X156822996Y-60896005D01*
X156661639Y-60813788D01*
X156661636Y-60813787D01*
X156489410Y-60757829D01*
X156310551Y-60729500D01*
X156310546Y-60729500D01*
X156129454Y-60729500D01*
X156129449Y-60729500D01*
X155950589Y-60757829D01*
X155778363Y-60813787D01*
X155778360Y-60813788D01*
X155617002Y-60896006D01*
X155470505Y-61002441D01*
X155470500Y-61002445D01*
X155342445Y-61130500D01*
X155342441Y-61130505D01*
X155236006Y-61277002D01*
X155153788Y-61438360D01*
X155153787Y-61438363D01*
X155097829Y-61610589D01*
X155069500Y-61789448D01*
X155069500Y-61970551D01*
X155097829Y-62149410D01*
X155153787Y-62321636D01*
X155153788Y-62321639D01*
X155236006Y-62482997D01*
X155342441Y-62629494D01*
X155342445Y-62629499D01*
X155470500Y-62757554D01*
X155470505Y-62757558D01*
X155594565Y-62847692D01*
X155617006Y-62863996D01*
X155722484Y-62917740D01*
X155778360Y-62946211D01*
X155778363Y-62946212D01*
X155864476Y-62974191D01*
X155950591Y-63002171D01*
X156033429Y-63015291D01*
X156129449Y-63030500D01*
X156129454Y-63030500D01*
X156310551Y-63030500D01*
X156397259Y-63016765D01*
X156489409Y-63002171D01*
X156661639Y-62946211D01*
X156822994Y-62863996D01*
X156943149Y-62776699D01*
X156969495Y-62757558D01*
X156969497Y-62757555D01*
X156969501Y-62757553D01*
X157097553Y-62629501D01*
X157203996Y-62482994D01*
X157271090Y-62351314D01*
X157319065Y-62300519D01*
X157386886Y-62283724D01*
X157453021Y-62306262D01*
X157496472Y-62360977D01*
X157499506Y-62369292D01*
X157508904Y-62398217D01*
X157605375Y-62587550D01*
X157644728Y-62641716D01*
X158277037Y-62009408D01*
X158294075Y-62072993D01*
X158359901Y-62187007D01*
X158452993Y-62280099D01*
X158567007Y-62345925D01*
X158630590Y-62362962D01*
X157998282Y-62995269D01*
X157998282Y-62995270D01*
X158052449Y-63034624D01*
X158241782Y-63131095D01*
X158443870Y-63196757D01*
X158653754Y-63230000D01*
X158866246Y-63230000D01*
X159076127Y-63196757D01*
X159076130Y-63196757D01*
X159278217Y-63131095D01*
X159467554Y-63034622D01*
X159521716Y-62995270D01*
X159521717Y-62995270D01*
X158889408Y-62362962D01*
X158952993Y-62345925D01*
X159067007Y-62280099D01*
X159160099Y-62187007D01*
X159225925Y-62072993D01*
X159242962Y-62009408D01*
X159875270Y-62641717D01*
X159875270Y-62641716D01*
X159914622Y-62587554D01*
X160011095Y-62398217D01*
X160020492Y-62369295D01*
X160059928Y-62311618D01*
X160124286Y-62284419D01*
X160193133Y-62296331D01*
X160244610Y-62343574D01*
X160248908Y-62351314D01*
X160316004Y-62482995D01*
X160422441Y-62629494D01*
X160422445Y-62629499D01*
X160550500Y-62757554D01*
X160550505Y-62757558D01*
X160674565Y-62847692D01*
X160697006Y-62863996D01*
X160802484Y-62917740D01*
X160858360Y-62946211D01*
X160858363Y-62946212D01*
X160944476Y-62974191D01*
X161030591Y-63002171D01*
X161113429Y-63015291D01*
X161209449Y-63030500D01*
X161209454Y-63030500D01*
X161390551Y-63030500D01*
X161477259Y-63016765D01*
X161569409Y-63002171D01*
X161741639Y-62946211D01*
X161902994Y-62863996D01*
X162049501Y-62757553D01*
X162177553Y-62629501D01*
X162283996Y-62482994D01*
X162366211Y-62321639D01*
X162422171Y-62149409D01*
X162436422Y-62059425D01*
X162447527Y-61989321D01*
X162477456Y-61926186D01*
X162536768Y-61889255D01*
X162606630Y-61890253D01*
X162664863Y-61928863D01*
X162692473Y-61989321D01*
X162717829Y-62149410D01*
X162773787Y-62321636D01*
X162773788Y-62321639D01*
X162856006Y-62482997D01*
X162962441Y-62629494D01*
X162962445Y-62629499D01*
X163090500Y-62757554D01*
X163090505Y-62757558D01*
X163214565Y-62847692D01*
X163237006Y-62863996D01*
X163342484Y-62917740D01*
X163398360Y-62946211D01*
X163398363Y-62946212D01*
X163484476Y-62974191D01*
X163570591Y-63002171D01*
X163653429Y-63015291D01*
X163749449Y-63030500D01*
X163749454Y-63030500D01*
X163930551Y-63030500D01*
X164017259Y-63016765D01*
X164109409Y-63002171D01*
X164281639Y-62946211D01*
X164442994Y-62863996D01*
X164589501Y-62757553D01*
X164717553Y-62629501D01*
X164823996Y-62482994D01*
X164906211Y-62321639D01*
X164962171Y-62149409D01*
X164976422Y-62059425D01*
X164987527Y-61989321D01*
X165017456Y-61926186D01*
X165076768Y-61889255D01*
X165146630Y-61890253D01*
X165204863Y-61928863D01*
X165232473Y-61989321D01*
X165257829Y-62149410D01*
X165313787Y-62321636D01*
X165313788Y-62321639D01*
X165396006Y-62482997D01*
X165502441Y-62629494D01*
X165502445Y-62629499D01*
X165630500Y-62757554D01*
X165630505Y-62757558D01*
X165754565Y-62847692D01*
X165777006Y-62863996D01*
X165882484Y-62917740D01*
X165938360Y-62946211D01*
X165938363Y-62946212D01*
X166024476Y-62974191D01*
X166110591Y-63002171D01*
X166193429Y-63015291D01*
X166289449Y-63030500D01*
X166289454Y-63030500D01*
X166470551Y-63030500D01*
X166557259Y-63016765D01*
X166649409Y-63002171D01*
X166821639Y-62946211D01*
X166982994Y-62863996D01*
X167129501Y-62757553D01*
X167257553Y-62629501D01*
X167363996Y-62482994D01*
X167446211Y-62321639D01*
X167502171Y-62149409D01*
X167516422Y-62059425D01*
X167527527Y-61989321D01*
X167557456Y-61926186D01*
X167616768Y-61889255D01*
X167686630Y-61890253D01*
X167744863Y-61928863D01*
X167772473Y-61989321D01*
X167797829Y-62149410D01*
X167853787Y-62321636D01*
X167853788Y-62321639D01*
X167936006Y-62482997D01*
X168042441Y-62629494D01*
X168042445Y-62629499D01*
X168170500Y-62757554D01*
X168170505Y-62757558D01*
X168294565Y-62847692D01*
X168317006Y-62863996D01*
X168422484Y-62917740D01*
X168478360Y-62946211D01*
X168478363Y-62946212D01*
X168564476Y-62974191D01*
X168650591Y-63002171D01*
X168733429Y-63015291D01*
X168829449Y-63030500D01*
X168829454Y-63030500D01*
X169010551Y-63030500D01*
X169097259Y-63016765D01*
X169189409Y-63002171D01*
X169361639Y-62946211D01*
X169522994Y-62863996D01*
X169669501Y-62757553D01*
X169797553Y-62629501D01*
X169903996Y-62482994D01*
X169986211Y-62321639D01*
X170042171Y-62149409D01*
X170056422Y-62059425D01*
X170067527Y-61989321D01*
X170097456Y-61926186D01*
X170156768Y-61889255D01*
X170226630Y-61890253D01*
X170284863Y-61928863D01*
X170312473Y-61989321D01*
X170337829Y-62149410D01*
X170393787Y-62321636D01*
X170393788Y-62321639D01*
X170476006Y-62482997D01*
X170582441Y-62629494D01*
X170582445Y-62629499D01*
X170710500Y-62757554D01*
X170710505Y-62757558D01*
X170834565Y-62847692D01*
X170857006Y-62863996D01*
X170962484Y-62917740D01*
X171018360Y-62946211D01*
X171018363Y-62946212D01*
X171104476Y-62974191D01*
X171190591Y-63002171D01*
X171273429Y-63015291D01*
X171369449Y-63030500D01*
X171369454Y-63030500D01*
X171550551Y-63030500D01*
X171637259Y-63016765D01*
X171729409Y-63002171D01*
X171901639Y-62946211D01*
X172062994Y-62863996D01*
X172209501Y-62757553D01*
X172337553Y-62629501D01*
X172443996Y-62482994D01*
X172526211Y-62321639D01*
X172582171Y-62149409D01*
X172596422Y-62059425D01*
X172607527Y-61989321D01*
X172637456Y-61926186D01*
X172696768Y-61889255D01*
X172766630Y-61890253D01*
X172824863Y-61928863D01*
X172852473Y-61989321D01*
X172877829Y-62149410D01*
X172933787Y-62321636D01*
X172933788Y-62321639D01*
X173016006Y-62482997D01*
X173122441Y-62629494D01*
X173122445Y-62629499D01*
X173250500Y-62757554D01*
X173250505Y-62757558D01*
X173374565Y-62847692D01*
X173397006Y-62863996D01*
X173502484Y-62917740D01*
X173558360Y-62946211D01*
X173558363Y-62946212D01*
X173644476Y-62974191D01*
X173730591Y-63002171D01*
X173813429Y-63015291D01*
X173909449Y-63030500D01*
X173909454Y-63030500D01*
X174090551Y-63030500D01*
X174177259Y-63016765D01*
X174269409Y-63002171D01*
X174441639Y-62946211D01*
X174602994Y-62863996D01*
X174655426Y-62825901D01*
X174712615Y-62784353D01*
X174778421Y-62760873D01*
X174846475Y-62776699D01*
X174895170Y-62826805D01*
X174909500Y-62884671D01*
X174909500Y-63675500D01*
X174889815Y-63742539D01*
X174837011Y-63788294D01*
X174785500Y-63799500D01*
X172044108Y-63799500D01*
X171916812Y-63833608D01*
X171802686Y-63899500D01*
X171802683Y-63899502D01*
X171709502Y-63992683D01*
X171709500Y-63992686D01*
X171643608Y-64106812D01*
X171609500Y-64234108D01*
X171609500Y-74765891D01*
X171643608Y-74893187D01*
X171676554Y-74950250D01*
X171709500Y-75007314D01*
X171802686Y-75100500D01*
X171916814Y-75166392D01*
X172044108Y-75200500D01*
X174785500Y-75200500D01*
X174852539Y-75220185D01*
X174898294Y-75272989D01*
X174909500Y-75324500D01*
X174909500Y-76115328D01*
X174889815Y-76182367D01*
X174837011Y-76228122D01*
X174767853Y-76238066D01*
X174712616Y-76215647D01*
X174602996Y-76136005D01*
X174441639Y-76053788D01*
X174441636Y-76053787D01*
X174269410Y-75997829D01*
X174090551Y-75969500D01*
X174090546Y-75969500D01*
X173909454Y-75969500D01*
X173909449Y-75969500D01*
X173730589Y-75997829D01*
X173558363Y-76053787D01*
X173558360Y-76053788D01*
X173397002Y-76136006D01*
X173250505Y-76242441D01*
X173250500Y-76242445D01*
X173122445Y-76370500D01*
X173122441Y-76370505D01*
X173016006Y-76517002D01*
X172933788Y-76678360D01*
X172933787Y-76678363D01*
X172877829Y-76850589D01*
X172852473Y-77010678D01*
X172822544Y-77073813D01*
X172763232Y-77110744D01*
X172693369Y-77109746D01*
X172635137Y-77071136D01*
X172607527Y-77010678D01*
X172593740Y-76923639D01*
X172582171Y-76850591D01*
X172526211Y-76678361D01*
X172526211Y-76678360D01*
X172497740Y-76622484D01*
X172443996Y-76517006D01*
X172369500Y-76414470D01*
X172337558Y-76370505D01*
X172337554Y-76370500D01*
X172209499Y-76242445D01*
X172209494Y-76242441D01*
X172062997Y-76136006D01*
X172062996Y-76136005D01*
X172062994Y-76136004D01*
X171986906Y-76097235D01*
X171901639Y-76053788D01*
X171901636Y-76053787D01*
X171729410Y-75997829D01*
X171550551Y-75969500D01*
X171550546Y-75969500D01*
X171369454Y-75969500D01*
X171369449Y-75969500D01*
X171190589Y-75997829D01*
X171018363Y-76053787D01*
X171018360Y-76053788D01*
X170857002Y-76136006D01*
X170710505Y-76242441D01*
X170710500Y-76242445D01*
X170582445Y-76370500D01*
X170582441Y-76370505D01*
X170476006Y-76517002D01*
X170393788Y-76678360D01*
X170393787Y-76678363D01*
X170337829Y-76850589D01*
X170312473Y-77010678D01*
X170282544Y-77073813D01*
X170223232Y-77110744D01*
X170153369Y-77109746D01*
X170095137Y-77071136D01*
X170067527Y-77010678D01*
X170053740Y-76923639D01*
X170042171Y-76850591D01*
X169986211Y-76678361D01*
X169986211Y-76678360D01*
X169957740Y-76622484D01*
X169903996Y-76517006D01*
X169829500Y-76414470D01*
X169797558Y-76370505D01*
X169797554Y-76370500D01*
X169669499Y-76242445D01*
X169669494Y-76242441D01*
X169522997Y-76136006D01*
X169522996Y-76136005D01*
X169522994Y-76136004D01*
X169446906Y-76097235D01*
X169361639Y-76053788D01*
X169361636Y-76053787D01*
X169189410Y-75997829D01*
X169010551Y-75969500D01*
X169010546Y-75969500D01*
X168829454Y-75969500D01*
X168829449Y-75969500D01*
X168650589Y-75997829D01*
X168478363Y-76053787D01*
X168478360Y-76053788D01*
X168317002Y-76136006D01*
X168170505Y-76242441D01*
X168170500Y-76242445D01*
X168042445Y-76370500D01*
X168042441Y-76370505D01*
X167936006Y-76517002D01*
X167853788Y-76678360D01*
X167853787Y-76678363D01*
X167797829Y-76850589D01*
X167772473Y-77010678D01*
X167742544Y-77073813D01*
X167683232Y-77110744D01*
X167613369Y-77109746D01*
X167555137Y-77071136D01*
X167527527Y-77010678D01*
X167513740Y-76923639D01*
X167502171Y-76850591D01*
X167446211Y-76678361D01*
X167446211Y-76678360D01*
X167417740Y-76622484D01*
X167363996Y-76517006D01*
X167289500Y-76414470D01*
X167257558Y-76370505D01*
X167257554Y-76370500D01*
X167129499Y-76242445D01*
X167129494Y-76242441D01*
X166982997Y-76136006D01*
X166982996Y-76136005D01*
X166982994Y-76136004D01*
X166906906Y-76097235D01*
X166821639Y-76053788D01*
X166821636Y-76053787D01*
X166649410Y-75997829D01*
X166470551Y-75969500D01*
X166470546Y-75969500D01*
X166289454Y-75969500D01*
X166289449Y-75969500D01*
X166110589Y-75997829D01*
X165938363Y-76053787D01*
X165938360Y-76053788D01*
X165777002Y-76136006D01*
X165630505Y-76242441D01*
X165630500Y-76242445D01*
X165502445Y-76370500D01*
X165502441Y-76370505D01*
X165396006Y-76517002D01*
X165313788Y-76678360D01*
X165313787Y-76678363D01*
X165257829Y-76850589D01*
X165232473Y-77010678D01*
X165202544Y-77073813D01*
X165143232Y-77110744D01*
X165073369Y-77109746D01*
X165015137Y-77071136D01*
X164987527Y-77010678D01*
X164973740Y-76923639D01*
X164962171Y-76850591D01*
X164906211Y-76678361D01*
X164906211Y-76678360D01*
X164877740Y-76622484D01*
X164823996Y-76517006D01*
X164749500Y-76414470D01*
X164717558Y-76370505D01*
X164717554Y-76370500D01*
X164589499Y-76242445D01*
X164589494Y-76242441D01*
X164442997Y-76136006D01*
X164442996Y-76136005D01*
X164442994Y-76136004D01*
X164366906Y-76097235D01*
X164281639Y-76053788D01*
X164281636Y-76053787D01*
X164109410Y-75997829D01*
X163930551Y-75969500D01*
X163930546Y-75969500D01*
X163749454Y-75969500D01*
X163749449Y-75969500D01*
X163570589Y-75997829D01*
X163398363Y-76053787D01*
X163398360Y-76053788D01*
X163237002Y-76136006D01*
X163090505Y-76242441D01*
X163090500Y-76242445D01*
X162962445Y-76370500D01*
X162962441Y-76370505D01*
X162856006Y-76517002D01*
X162773788Y-76678360D01*
X162773787Y-76678363D01*
X162717829Y-76850589D01*
X162692473Y-77010678D01*
X162662544Y-77073813D01*
X162603232Y-77110744D01*
X162533369Y-77109746D01*
X162475137Y-77071136D01*
X162447527Y-77010678D01*
X162433740Y-76923639D01*
X162422171Y-76850591D01*
X162366211Y-76678361D01*
X162366211Y-76678360D01*
X162337740Y-76622484D01*
X162283996Y-76517006D01*
X162209500Y-76414470D01*
X162177558Y-76370505D01*
X162177554Y-76370500D01*
X162049499Y-76242445D01*
X162049494Y-76242441D01*
X161902997Y-76136006D01*
X161902996Y-76136005D01*
X161902994Y-76136004D01*
X161826906Y-76097235D01*
X161741639Y-76053788D01*
X161741636Y-76053787D01*
X161569410Y-75997829D01*
X161390551Y-75969500D01*
X161390546Y-75969500D01*
X161209454Y-75969500D01*
X161209449Y-75969500D01*
X161030589Y-75997829D01*
X160858363Y-76053787D01*
X160858360Y-76053788D01*
X160697002Y-76136006D01*
X160550505Y-76242441D01*
X160550500Y-76242445D01*
X160422445Y-76370500D01*
X160422441Y-76370505D01*
X160316006Y-76517002D01*
X160233788Y-76678360D01*
X160233787Y-76678363D01*
X160177829Y-76850589D01*
X160152473Y-77010678D01*
X160122544Y-77073813D01*
X160063232Y-77110744D01*
X159993369Y-77109746D01*
X159935137Y-77071136D01*
X159907527Y-77010678D01*
X159893740Y-76923639D01*
X159882171Y-76850591D01*
X159826211Y-76678361D01*
X159826211Y-76678360D01*
X159797740Y-76622484D01*
X159743996Y-76517006D01*
X159669500Y-76414470D01*
X159637558Y-76370505D01*
X159637554Y-76370500D01*
X159509499Y-76242445D01*
X159509494Y-76242441D01*
X159362997Y-76136006D01*
X159362996Y-76136005D01*
X159362994Y-76136004D01*
X159286906Y-76097235D01*
X159201639Y-76053788D01*
X159201636Y-76053787D01*
X159029410Y-75997829D01*
X158850551Y-75969500D01*
X158850546Y-75969500D01*
X158669454Y-75969500D01*
X158669449Y-75969500D01*
X158490589Y-75997829D01*
X158318363Y-76053787D01*
X158318360Y-76053788D01*
X158157002Y-76136006D01*
X158010505Y-76242441D01*
X158010500Y-76242445D01*
X157882445Y-76370500D01*
X157882441Y-76370505D01*
X157776006Y-76517002D01*
X157693788Y-76678360D01*
X157693787Y-76678363D01*
X157637829Y-76850589D01*
X157616972Y-76982271D01*
X157587042Y-77045405D01*
X157527731Y-77082336D01*
X157457868Y-77081338D01*
X157399636Y-77042728D01*
X157371522Y-76978764D01*
X157370499Y-76962872D01*
X157370499Y-76225143D01*
X157370499Y-76225136D01*
X157369399Y-76215647D01*
X157367586Y-76200012D01*
X157367585Y-76200010D01*
X157367585Y-76200009D01*
X157322206Y-76097235D01*
X157242765Y-76017794D01*
X157242763Y-76017793D01*
X157139992Y-75972415D01*
X157114865Y-75969500D01*
X155325143Y-75969500D01*
X155325117Y-75969502D01*
X155300012Y-75972413D01*
X155300008Y-75972415D01*
X155197235Y-76017793D01*
X155117794Y-76097234D01*
X155072415Y-76200006D01*
X155072415Y-76200008D01*
X155069500Y-76225131D01*
X155069500Y-78014856D01*
X155069502Y-78014882D01*
X155072413Y-78039987D01*
X155072415Y-78039991D01*
X155117793Y-78142764D01*
X155117794Y-78142765D01*
X155197235Y-78222206D01*
X155300009Y-78267585D01*
X155325135Y-78270500D01*
X157114864Y-78270499D01*
X157114879Y-78270497D01*
X157114882Y-78270497D01*
X157139987Y-78267586D01*
X157139988Y-78267585D01*
X157139991Y-78267585D01*
X157242765Y-78222206D01*
X157322206Y-78142765D01*
X157367585Y-78039991D01*
X157370500Y-78014865D01*
X157370499Y-77277125D01*
X157390183Y-77210089D01*
X157442987Y-77164334D01*
X157512146Y-77154390D01*
X157575702Y-77183415D01*
X157613476Y-77242193D01*
X157616972Y-77257729D01*
X157637829Y-77389410D01*
X157693787Y-77561636D01*
X157693788Y-77561639D01*
X157776006Y-77722997D01*
X157882441Y-77869494D01*
X157882445Y-77869499D01*
X158010500Y-77997554D01*
X158010505Y-77997558D01*
X158138287Y-78090396D01*
X158157006Y-78103996D01*
X158233094Y-78142765D01*
X158318360Y-78186211D01*
X158318363Y-78186212D01*
X158404476Y-78214191D01*
X158490591Y-78242171D01*
X158573429Y-78255291D01*
X158669449Y-78270500D01*
X158669454Y-78270500D01*
X158850551Y-78270500D01*
X158937259Y-78256765D01*
X159029409Y-78242171D01*
X159201639Y-78186211D01*
X159362994Y-78103996D01*
X159509501Y-77997553D01*
X159637553Y-77869501D01*
X159743996Y-77722994D01*
X159826211Y-77561639D01*
X159882171Y-77389409D01*
X159896422Y-77299425D01*
X159907527Y-77229321D01*
X159937456Y-77166186D01*
X159996768Y-77129255D01*
X160066630Y-77130253D01*
X160124863Y-77168863D01*
X160152473Y-77229321D01*
X160177829Y-77389410D01*
X160233787Y-77561636D01*
X160233788Y-77561639D01*
X160316006Y-77722997D01*
X160422441Y-77869494D01*
X160422445Y-77869499D01*
X160550500Y-77997554D01*
X160550505Y-77997558D01*
X160678287Y-78090396D01*
X160697006Y-78103996D01*
X160773094Y-78142765D01*
X160858360Y-78186211D01*
X160858363Y-78186212D01*
X160944476Y-78214191D01*
X161030591Y-78242171D01*
X161113429Y-78255291D01*
X161209449Y-78270500D01*
X161209454Y-78270500D01*
X161390551Y-78270500D01*
X161477259Y-78256765D01*
X161569409Y-78242171D01*
X161741639Y-78186211D01*
X161902994Y-78103996D01*
X162049501Y-77997553D01*
X162177553Y-77869501D01*
X162283996Y-77722994D01*
X162366211Y-77561639D01*
X162422171Y-77389409D01*
X162436422Y-77299425D01*
X162447527Y-77229321D01*
X162477456Y-77166186D01*
X162536768Y-77129255D01*
X162606630Y-77130253D01*
X162664863Y-77168863D01*
X162692473Y-77229321D01*
X162717829Y-77389410D01*
X162773787Y-77561636D01*
X162773788Y-77561639D01*
X162856006Y-77722997D01*
X162962441Y-77869494D01*
X162962445Y-77869499D01*
X163090500Y-77997554D01*
X163090505Y-77997558D01*
X163218287Y-78090396D01*
X163237006Y-78103996D01*
X163313094Y-78142765D01*
X163398360Y-78186211D01*
X163398363Y-78186212D01*
X163484476Y-78214191D01*
X163570591Y-78242171D01*
X163653429Y-78255291D01*
X163749449Y-78270500D01*
X163749454Y-78270500D01*
X163930551Y-78270500D01*
X164017259Y-78256765D01*
X164109409Y-78242171D01*
X164281639Y-78186211D01*
X164442994Y-78103996D01*
X164589501Y-77997553D01*
X164717553Y-77869501D01*
X164823996Y-77722994D01*
X164906211Y-77561639D01*
X164962171Y-77389409D01*
X164976422Y-77299425D01*
X164987527Y-77229321D01*
X165017456Y-77166186D01*
X165076768Y-77129255D01*
X165146630Y-77130253D01*
X165204863Y-77168863D01*
X165232473Y-77229321D01*
X165257829Y-77389410D01*
X165313787Y-77561636D01*
X165313788Y-77561639D01*
X165396006Y-77722997D01*
X165502441Y-77869494D01*
X165502445Y-77869499D01*
X165630500Y-77997554D01*
X165630505Y-77997558D01*
X165758287Y-78090396D01*
X165777006Y-78103996D01*
X165853094Y-78142765D01*
X165938360Y-78186211D01*
X165938363Y-78186212D01*
X166024476Y-78214191D01*
X166110591Y-78242171D01*
X166193429Y-78255291D01*
X166289449Y-78270500D01*
X166289454Y-78270500D01*
X166470551Y-78270500D01*
X166557259Y-78256765D01*
X166649409Y-78242171D01*
X166821639Y-78186211D01*
X166982994Y-78103996D01*
X167129501Y-77997553D01*
X167257553Y-77869501D01*
X167363996Y-77722994D01*
X167446211Y-77561639D01*
X167502171Y-77389409D01*
X167516422Y-77299425D01*
X167527527Y-77229321D01*
X167557456Y-77166186D01*
X167616768Y-77129255D01*
X167686630Y-77130253D01*
X167744863Y-77168863D01*
X167772473Y-77229321D01*
X167797829Y-77389410D01*
X167853787Y-77561636D01*
X167853788Y-77561639D01*
X167936006Y-77722997D01*
X168042441Y-77869494D01*
X168042445Y-77869499D01*
X168170500Y-77997554D01*
X168170505Y-77997558D01*
X168298287Y-78090396D01*
X168317006Y-78103996D01*
X168393094Y-78142765D01*
X168478360Y-78186211D01*
X168478363Y-78186212D01*
X168564476Y-78214191D01*
X168650591Y-78242171D01*
X168733429Y-78255291D01*
X168829449Y-78270500D01*
X168829454Y-78270500D01*
X169010551Y-78270500D01*
X169097259Y-78256765D01*
X169189409Y-78242171D01*
X169361639Y-78186211D01*
X169522994Y-78103996D01*
X169669501Y-77997553D01*
X169797553Y-77869501D01*
X169903996Y-77722994D01*
X169986211Y-77561639D01*
X170042171Y-77389409D01*
X170056422Y-77299425D01*
X170067527Y-77229321D01*
X170097456Y-77166186D01*
X170156768Y-77129255D01*
X170226630Y-77130253D01*
X170284863Y-77168863D01*
X170312473Y-77229321D01*
X170337829Y-77389410D01*
X170393787Y-77561636D01*
X170393788Y-77561639D01*
X170476006Y-77722997D01*
X170582441Y-77869494D01*
X170582445Y-77869499D01*
X170710500Y-77997554D01*
X170710505Y-77997558D01*
X170838287Y-78090396D01*
X170857006Y-78103996D01*
X170933094Y-78142765D01*
X171018360Y-78186211D01*
X171018363Y-78186212D01*
X171104476Y-78214191D01*
X171190591Y-78242171D01*
X171273429Y-78255291D01*
X171369449Y-78270500D01*
X171369454Y-78270500D01*
X171550551Y-78270500D01*
X171637259Y-78256765D01*
X171729409Y-78242171D01*
X171901639Y-78186211D01*
X172062994Y-78103996D01*
X172209501Y-77997553D01*
X172337553Y-77869501D01*
X172443996Y-77722994D01*
X172526211Y-77561639D01*
X172582171Y-77389409D01*
X172596422Y-77299425D01*
X172607527Y-77229321D01*
X172637456Y-77166186D01*
X172696768Y-77129255D01*
X172766630Y-77130253D01*
X172824863Y-77168863D01*
X172852473Y-77229321D01*
X172877829Y-77389410D01*
X172933787Y-77561636D01*
X172933788Y-77561639D01*
X173016006Y-77722997D01*
X173122441Y-77869494D01*
X173122445Y-77869499D01*
X173250500Y-77997554D01*
X173250505Y-77997558D01*
X173378287Y-78090396D01*
X173397006Y-78103996D01*
X173473094Y-78142765D01*
X173558360Y-78186211D01*
X173558363Y-78186212D01*
X173644476Y-78214191D01*
X173730591Y-78242171D01*
X173813429Y-78255291D01*
X173909449Y-78270500D01*
X173909454Y-78270500D01*
X173925500Y-78270500D01*
X173992539Y-78290185D01*
X174038294Y-78342989D01*
X174049500Y-78394500D01*
X174049500Y-90262035D01*
X174029815Y-90329074D01*
X174013181Y-90349716D01*
X173349716Y-91013181D01*
X173288393Y-91046666D01*
X173262035Y-91049500D01*
X151737965Y-91049500D01*
X151670926Y-91029815D01*
X151650284Y-91013181D01*
X150486819Y-89849716D01*
X150453334Y-89788393D01*
X150450500Y-89762035D01*
X150450500Y-89593939D01*
X150470185Y-89526900D01*
X150522989Y-89481145D01*
X150592147Y-89471201D01*
X150655703Y-89500226D01*
X150677602Y-89525048D01*
X150742279Y-89621844D01*
X150742282Y-89621848D01*
X150878151Y-89757717D01*
X150878155Y-89757720D01*
X151037927Y-89864477D01*
X151037928Y-89864477D01*
X151037929Y-89864478D01*
X151037931Y-89864479D01*
X151215452Y-89938010D01*
X151215457Y-89938012D01*
X151403917Y-89975499D01*
X151403920Y-89975500D01*
X151403922Y-89975500D01*
X151596080Y-89975500D01*
X151596081Y-89975499D01*
X151784543Y-89938012D01*
X151962073Y-89864477D01*
X152121845Y-89757720D01*
X152257720Y-89621845D01*
X152276570Y-89593634D01*
X152330181Y-89548829D01*
X152399506Y-89540122D01*
X152462534Y-89570276D01*
X152490158Y-89606232D01*
X152495050Y-89615834D01*
X152510015Y-89636430D01*
X152510016Y-89636431D01*
X153100000Y-89046447D01*
X153100000Y-89052661D01*
X153127259Y-89154394D01*
X153179920Y-89245606D01*
X153254394Y-89320080D01*
X153345606Y-89372741D01*
X153447339Y-89400000D01*
X153453553Y-89400000D01*
X152863568Y-89989983D01*
X152863568Y-89989984D01*
X152884165Y-90004949D01*
X153048956Y-90088915D01*
X153048959Y-90088916D01*
X153224852Y-90146066D01*
X153407527Y-90175000D01*
X153592473Y-90175000D01*
X153775147Y-90146066D01*
X153951040Y-90088916D01*
X153951043Y-90088915D01*
X154115836Y-90004947D01*
X154115845Y-90004942D01*
X154136430Y-89989984D01*
X154136431Y-89989983D01*
X153546448Y-89400000D01*
X153552661Y-89400000D01*
X153654394Y-89372741D01*
X153745606Y-89320080D01*
X153820080Y-89245606D01*
X153872741Y-89154394D01*
X153900000Y-89052661D01*
X153900000Y-89046448D01*
X154489983Y-89636431D01*
X154489984Y-89636430D01*
X154504942Y-89615845D01*
X154504947Y-89615836D01*
X154588915Y-89451043D01*
X154588916Y-89451040D01*
X154646066Y-89275147D01*
X154675000Y-89092473D01*
X154675000Y-88907526D01*
X154646066Y-88724852D01*
X154588916Y-88548959D01*
X154588915Y-88548956D01*
X154504949Y-88384165D01*
X154489983Y-88363568D01*
X153900000Y-88953551D01*
X153900000Y-88947339D01*
X153872741Y-88845606D01*
X153820080Y-88754394D01*
X153745606Y-88679920D01*
X153654394Y-88627259D01*
X153552661Y-88600000D01*
X153546447Y-88600000D01*
X154136431Y-88010016D01*
X154136430Y-88010015D01*
X154115834Y-87995050D01*
X154106232Y-87990158D01*
X154055435Y-87942184D01*
X154038639Y-87874364D01*
X154061175Y-87808228D01*
X154093633Y-87776570D01*
X154121845Y-87757720D01*
X154257720Y-87621845D01*
X154364477Y-87462073D01*
X154428752Y-87306898D01*
X155724500Y-87306898D01*
X155724500Y-88693102D01*
X155725327Y-88699986D01*
X155735122Y-88781561D01*
X155790639Y-88922343D01*
X155882077Y-89042922D01*
X155962021Y-89103545D01*
X156003545Y-89159737D01*
X156008713Y-89178155D01*
X156013919Y-89204325D01*
X156013920Y-89204330D01*
X156066721Y-89331804D01*
X156066728Y-89331817D01*
X156143385Y-89446541D01*
X156143388Y-89446545D01*
X156240954Y-89544111D01*
X156240958Y-89544114D01*
X156355682Y-89620771D01*
X156355695Y-89620778D01*
X156483167Y-89673578D01*
X156483172Y-89673580D01*
X156483176Y-89673580D01*
X156483177Y-89673581D01*
X156618504Y-89700500D01*
X156618507Y-89700500D01*
X156756495Y-89700500D01*
X156847541Y-89682389D01*
X156891828Y-89673580D01*
X157019311Y-89620775D01*
X157134042Y-89544114D01*
X157231614Y-89446542D01*
X157308275Y-89331811D01*
X157314724Y-89316243D01*
X157361078Y-89204332D01*
X157361080Y-89204328D01*
X157366285Y-89178159D01*
X157398667Y-89116250D01*
X157412969Y-89103551D01*
X157492922Y-89042922D01*
X157584361Y-88922342D01*
X157639877Y-88781564D01*
X157649673Y-88699986D01*
X158650001Y-88699986D01*
X158660494Y-88802697D01*
X158715641Y-88969119D01*
X158715643Y-88969124D01*
X158807684Y-89118345D01*
X158931654Y-89242315D01*
X159080875Y-89334356D01*
X159080880Y-89334358D01*
X159247302Y-89389505D01*
X159247309Y-89389506D01*
X159350019Y-89399999D01*
X159562499Y-89399999D01*
X160062500Y-89399999D01*
X160274972Y-89399999D01*
X160274986Y-89399998D01*
X160377697Y-89389505D01*
X160544119Y-89334358D01*
X160544124Y-89334356D01*
X160693345Y-89242315D01*
X160817315Y-89118345D01*
X160909356Y-88969124D01*
X160909358Y-88969119D01*
X160934346Y-88893713D01*
X162149500Y-88893713D01*
X162149500Y-89106287D01*
X162182754Y-89316243D01*
X162236334Y-89481145D01*
X162248444Y-89518414D01*
X162344951Y-89707820D01*
X162469890Y-89879786D01*
X162620213Y-90030109D01*
X162792179Y-90155048D01*
X162792181Y-90155049D01*
X162792184Y-90155051D01*
X162981588Y-90251557D01*
X163183757Y-90317246D01*
X163393713Y-90350500D01*
X163393714Y-90350500D01*
X163606286Y-90350500D01*
X163606287Y-90350500D01*
X163816243Y-90317246D01*
X164018412Y-90251557D01*
X164207816Y-90155051D01*
X164298845Y-90088915D01*
X164379786Y-90030109D01*
X164379788Y-90030106D01*
X164379792Y-90030104D01*
X164530104Y-89879792D01*
X164530106Y-89879788D01*
X164530109Y-89879786D01*
X164655048Y-89707820D01*
X164655047Y-89707820D01*
X164655051Y-89707816D01*
X164751557Y-89518412D01*
X164817246Y-89316243D01*
X164850500Y-89106287D01*
X164850500Y-88893713D01*
X170649500Y-88893713D01*
X170649500Y-89106287D01*
X170682754Y-89316243D01*
X170736334Y-89481145D01*
X170748444Y-89518414D01*
X170844951Y-89707820D01*
X170969890Y-89879786D01*
X171120213Y-90030109D01*
X171292179Y-90155048D01*
X171292181Y-90155049D01*
X171292184Y-90155051D01*
X171481588Y-90251557D01*
X171683757Y-90317246D01*
X171893713Y-90350500D01*
X171893714Y-90350500D01*
X172106286Y-90350500D01*
X172106287Y-90350500D01*
X172316243Y-90317246D01*
X172518412Y-90251557D01*
X172707816Y-90155051D01*
X172798845Y-90088915D01*
X172879786Y-90030109D01*
X172879788Y-90030106D01*
X172879792Y-90030104D01*
X173030104Y-89879792D01*
X173030106Y-89879788D01*
X173030109Y-89879786D01*
X173155048Y-89707820D01*
X173155047Y-89707820D01*
X173155051Y-89707816D01*
X173251557Y-89518412D01*
X173317246Y-89316243D01*
X173350500Y-89106287D01*
X173350500Y-88893713D01*
X173317246Y-88683757D01*
X173251557Y-88481588D01*
X173155051Y-88292184D01*
X173155049Y-88292181D01*
X173155048Y-88292179D01*
X173030109Y-88120213D01*
X172879786Y-87969890D01*
X172707820Y-87844951D01*
X172518414Y-87748444D01*
X172518413Y-87748443D01*
X172518412Y-87748443D01*
X172316243Y-87682754D01*
X172316241Y-87682753D01*
X172316240Y-87682753D01*
X172154957Y-87657208D01*
X172106287Y-87649500D01*
X171893713Y-87649500D01*
X171845042Y-87657208D01*
X171683760Y-87682753D01*
X171481585Y-87748444D01*
X171292179Y-87844951D01*
X171120213Y-87969890D01*
X170969890Y-88120213D01*
X170844951Y-88292179D01*
X170748444Y-88481585D01*
X170682753Y-88683760D01*
X170663915Y-88802700D01*
X170649500Y-88893713D01*
X164850500Y-88893713D01*
X164817246Y-88683757D01*
X164751557Y-88481588D01*
X164655051Y-88292184D01*
X164655049Y-88292181D01*
X164655048Y-88292179D01*
X164530109Y-88120213D01*
X164379786Y-87969890D01*
X164207820Y-87844951D01*
X164018414Y-87748444D01*
X164018413Y-87748443D01*
X164018412Y-87748443D01*
X163816243Y-87682754D01*
X163816241Y-87682753D01*
X163816240Y-87682753D01*
X163654957Y-87657208D01*
X163606287Y-87649500D01*
X163393713Y-87649500D01*
X163345042Y-87657208D01*
X163183760Y-87682753D01*
X162981585Y-87748444D01*
X162792179Y-87844951D01*
X162620213Y-87969890D01*
X162469890Y-88120213D01*
X162344951Y-88292179D01*
X162248444Y-88481585D01*
X162182753Y-88683760D01*
X162163915Y-88802700D01*
X162149500Y-88893713D01*
X160934346Y-88893713D01*
X160948885Y-88849837D01*
X160948885Y-88849836D01*
X160964504Y-88802700D01*
X160964506Y-88802690D01*
X160974999Y-88699986D01*
X160975000Y-88699973D01*
X160975000Y-88250000D01*
X160062500Y-88250000D01*
X160062500Y-89399999D01*
X159562499Y-89399999D01*
X159562500Y-89399998D01*
X159562500Y-88250000D01*
X158650001Y-88250000D01*
X158650001Y-88699986D01*
X157649673Y-88699986D01*
X157650500Y-88693102D01*
X157650500Y-87306898D01*
X157649673Y-87300013D01*
X158650000Y-87300013D01*
X158650000Y-87750000D01*
X159562500Y-87750000D01*
X160062500Y-87750000D01*
X160974999Y-87750000D01*
X160974999Y-87300028D01*
X160974998Y-87300013D01*
X160964505Y-87197302D01*
X160909358Y-87030880D01*
X160909356Y-87030875D01*
X160817315Y-86881654D01*
X160693345Y-86757684D01*
X160544124Y-86665643D01*
X160544119Y-86665641D01*
X160377697Y-86610494D01*
X160377690Y-86610493D01*
X160274986Y-86600000D01*
X160062500Y-86600000D01*
X160062500Y-87750000D01*
X159562500Y-87750000D01*
X159562500Y-86600000D01*
X159350029Y-86600000D01*
X159350012Y-86600001D01*
X159247302Y-86610494D01*
X159080880Y-86665641D01*
X159080875Y-86665643D01*
X158931654Y-86757684D01*
X158807684Y-86881654D01*
X158715643Y-87030875D01*
X158715641Y-87030880D01*
X158660494Y-87197302D01*
X158660493Y-87197309D01*
X158650000Y-87300013D01*
X157649673Y-87300013D01*
X157639877Y-87218436D01*
X157584361Y-87077658D01*
X157584360Y-87077657D01*
X157584360Y-87077656D01*
X157492922Y-86957077D01*
X157372343Y-86865639D01*
X157231561Y-86810122D01*
X157185926Y-86804642D01*
X157143102Y-86799500D01*
X156231898Y-86799500D01*
X156192853Y-86804188D01*
X156143438Y-86810122D01*
X156002656Y-86865639D01*
X155882077Y-86957077D01*
X155790639Y-87077656D01*
X155735122Y-87218438D01*
X155729188Y-87267853D01*
X155724500Y-87306898D01*
X154428752Y-87306898D01*
X154438012Y-87284543D01*
X154451162Y-87218436D01*
X154475499Y-87096082D01*
X154475500Y-87096080D01*
X154475500Y-86903919D01*
X154475499Y-86903917D01*
X154438013Y-86715464D01*
X154438012Y-86715457D01*
X154438010Y-86715452D01*
X154364479Y-86537931D01*
X154364478Y-86537929D01*
X154257720Y-86378155D01*
X154257717Y-86378151D01*
X154121848Y-86242282D01*
X154121844Y-86242279D01*
X153962070Y-86135521D01*
X153962068Y-86135520D01*
X153911467Y-86114561D01*
X153857063Y-86070720D01*
X153834998Y-86004426D01*
X153852277Y-85936727D01*
X153903414Y-85889116D01*
X153911467Y-85885439D01*
X153962068Y-85864479D01*
X153962067Y-85864479D01*
X153962073Y-85864477D01*
X154121845Y-85757720D01*
X154257720Y-85621845D01*
X154364477Y-85462073D01*
X154438012Y-85284543D01*
X154475500Y-85096078D01*
X154475500Y-84903922D01*
X154475500Y-84903919D01*
X154475499Y-84903917D01*
X154438013Y-84715464D01*
X154438012Y-84715457D01*
X154417113Y-84665001D01*
X154364479Y-84537931D01*
X154364478Y-84537929D01*
X154299505Y-84440691D01*
X154257720Y-84378155D01*
X154257717Y-84378151D01*
X154121848Y-84242282D01*
X154121844Y-84242279D01*
X153962070Y-84135521D01*
X153962068Y-84135520D01*
X153911467Y-84114561D01*
X153857063Y-84070720D01*
X153834998Y-84004426D01*
X153852277Y-83936727D01*
X153903414Y-83889116D01*
X153911467Y-83885439D01*
X153962068Y-83864479D01*
X153962067Y-83864479D01*
X153962073Y-83864477D01*
X154121845Y-83757720D01*
X154179065Y-83700500D01*
X154257714Y-83621852D01*
X154257715Y-83621849D01*
X154257720Y-83621845D01*
X154268569Y-83605607D01*
X154322180Y-83560804D01*
X154371670Y-83550500D01*
X155487900Y-83550500D01*
X155554939Y-83570185D01*
X155556791Y-83571398D01*
X155630689Y-83620775D01*
X155630691Y-83620776D01*
X155630695Y-83620778D01*
X155758167Y-83673578D01*
X155758172Y-83673580D01*
X155758176Y-83673580D01*
X155758177Y-83673581D01*
X155893504Y-83700500D01*
X155893507Y-83700500D01*
X156031495Y-83700500D01*
X156122541Y-83682389D01*
X156166828Y-83673580D01*
X156294311Y-83620775D01*
X156409042Y-83544114D01*
X156506614Y-83446542D01*
X156583275Y-83331811D01*
X156636080Y-83204328D01*
X156651798Y-83125309D01*
X156684182Y-83063398D01*
X156744898Y-83028824D01*
X156773415Y-83025500D01*
X157343097Y-83025500D01*
X157343102Y-83025500D01*
X157431564Y-83014877D01*
X157572342Y-82959361D01*
X157692922Y-82867922D01*
X157748892Y-82794115D01*
X157789486Y-82740584D01*
X157791317Y-82741972D01*
X157832607Y-82701689D01*
X157901058Y-82687682D01*
X157966216Y-82712905D01*
X158007394Y-82769351D01*
X158008391Y-82772241D01*
X158015640Y-82794115D01*
X158015643Y-82794124D01*
X158107684Y-82943345D01*
X158231654Y-83067315D01*
X158380875Y-83159356D01*
X158380880Y-83159358D01*
X158547302Y-83214505D01*
X158547309Y-83214506D01*
X158650019Y-83224999D01*
X158787499Y-83224999D01*
X159287500Y-83224999D01*
X159424972Y-83224999D01*
X159424986Y-83224998D01*
X159527697Y-83214505D01*
X159694119Y-83159358D01*
X159694124Y-83159356D01*
X159843345Y-83067315D01*
X159967315Y-82943345D01*
X160059356Y-82794124D01*
X160059358Y-82794119D01*
X160114505Y-82627697D01*
X160114506Y-82627690D01*
X160124999Y-82524986D01*
X160125000Y-82524973D01*
X160125000Y-82250000D01*
X159287500Y-82250000D01*
X159287500Y-83224999D01*
X158787499Y-83224999D01*
X158787500Y-83224998D01*
X158787500Y-81750000D01*
X159287500Y-81750000D01*
X160124999Y-81750000D01*
X160124999Y-81475028D01*
X160124998Y-81475013D01*
X160114505Y-81372302D01*
X160059358Y-81205880D01*
X160059356Y-81205875D01*
X159967315Y-81056654D01*
X159843345Y-80932684D01*
X159694124Y-80840643D01*
X159694119Y-80840641D01*
X159527697Y-80785494D01*
X159527690Y-80785493D01*
X159424986Y-80775000D01*
X159287500Y-80775000D01*
X159287500Y-81750000D01*
X158787500Y-81750000D01*
X158787500Y-80775000D01*
X158650027Y-80775000D01*
X158650012Y-80775001D01*
X158547302Y-80785494D01*
X158380880Y-80840641D01*
X158380875Y-80840643D01*
X158231654Y-80932684D01*
X158107684Y-81056654D01*
X158015643Y-81205875D01*
X158015640Y-81205884D01*
X158008391Y-81227759D01*
X157968618Y-81285203D01*
X157904102Y-81312025D01*
X157835326Y-81299709D01*
X157790834Y-81258393D01*
X157789486Y-81259416D01*
X157692922Y-81132077D01*
X157572343Y-81040639D01*
X157431561Y-80985122D01*
X157385926Y-80979642D01*
X157343102Y-80974500D01*
X156581898Y-80974500D01*
X156542853Y-80979188D01*
X156493438Y-80985122D01*
X156352656Y-81040639D01*
X156232077Y-81132077D01*
X156140639Y-81252656D01*
X156085122Y-81393438D01*
X156079188Y-81442853D01*
X156074500Y-81481898D01*
X156074500Y-81481903D01*
X156074500Y-82058112D01*
X156065855Y-82087552D01*
X156059332Y-82117539D01*
X156055577Y-82122554D01*
X156054815Y-82125151D01*
X156038181Y-82145794D01*
X155908829Y-82275145D01*
X155847506Y-82308629D01*
X155845340Y-82309080D01*
X155758177Y-82326418D01*
X155758167Y-82326421D01*
X155630695Y-82379221D01*
X155630683Y-82379228D01*
X155556791Y-82428602D01*
X155490114Y-82449480D01*
X155487900Y-82449500D01*
X154371670Y-82449500D01*
X154304631Y-82429815D01*
X154268570Y-82394393D01*
X154257720Y-82378155D01*
X154257716Y-82378151D01*
X154257714Y-82378148D01*
X154121848Y-82242282D01*
X154121844Y-82242279D01*
X153962070Y-82135521D01*
X153962068Y-82135520D01*
X153784547Y-82061989D01*
X153784535Y-82061986D01*
X153596081Y-82024500D01*
X153596078Y-82024500D01*
X153403922Y-82024500D01*
X153403919Y-82024500D01*
X153215464Y-82061986D01*
X153215452Y-82061989D01*
X153037931Y-82135520D01*
X153037929Y-82135521D01*
X152878155Y-82242279D01*
X152878151Y-82242282D01*
X152742282Y-82378151D01*
X152742279Y-82378155D01*
X152702601Y-82437538D01*
X152648989Y-82482343D01*
X152579664Y-82491050D01*
X152516636Y-82460895D01*
X152479917Y-82401452D01*
X152475499Y-82368647D01*
X152475499Y-82280143D01*
X152475499Y-82280136D01*
X152474920Y-82275145D01*
X152472586Y-82255012D01*
X152472585Y-82255010D01*
X152472585Y-82255009D01*
X152427206Y-82152235D01*
X152347765Y-82072794D01*
X152323287Y-82061986D01*
X152244992Y-82027415D01*
X152219865Y-82024500D01*
X150780143Y-82024500D01*
X150780117Y-82024502D01*
X150755012Y-82027413D01*
X150755008Y-82027415D01*
X150652235Y-82072793D01*
X150572794Y-82152234D01*
X150527415Y-82255006D01*
X150527415Y-82255008D01*
X150524500Y-82280131D01*
X150524500Y-83287034D01*
X150504815Y-83354073D01*
X150488181Y-83374715D01*
X149672181Y-84190715D01*
X149610858Y-84224200D01*
X149541166Y-84219216D01*
X149485233Y-84177344D01*
X149460816Y-84111880D01*
X149460500Y-84103034D01*
X149460500Y-75324500D01*
X149480185Y-75257461D01*
X149532989Y-75211706D01*
X149584500Y-75200500D01*
X154675890Y-75200500D01*
X154675892Y-75200500D01*
X154803186Y-75166392D01*
X154917314Y-75100500D01*
X155010500Y-75007314D01*
X155076392Y-74893186D01*
X155110500Y-74765892D01*
X155110500Y-64234108D01*
X155076392Y-64106814D01*
X155010500Y-63992686D01*
X154917314Y-63899500D01*
X154860250Y-63866554D01*
X154803187Y-63833608D01*
X154739539Y-63816554D01*
X154675892Y-63799500D01*
X154675891Y-63799500D01*
X149584500Y-63799500D01*
X149517461Y-63779815D01*
X149471706Y-63727011D01*
X149460500Y-63675500D01*
X149460500Y-56384500D01*
X149480185Y-56317461D01*
X149532989Y-56271706D01*
X149584500Y-56260500D01*
X174785500Y-56260500D01*
X174852539Y-56280185D01*
G37*
G04 #@! TD.AperFunction*
G04 #@! TA.AperFunction,Conductor*
G36*
X152563273Y-87352277D02*
G01*
X152610884Y-87403414D01*
X152614561Y-87411467D01*
X152635520Y-87462068D01*
X152635521Y-87462070D01*
X152742279Y-87621844D01*
X152742282Y-87621848D01*
X152878151Y-87757717D01*
X152878155Y-87757720D01*
X152906365Y-87776570D01*
X152951170Y-87830183D01*
X152959877Y-87899508D01*
X152929722Y-87962535D01*
X152893773Y-87990155D01*
X152884168Y-87995049D01*
X152863568Y-88010015D01*
X153453554Y-88600000D01*
X153447339Y-88600000D01*
X153345606Y-88627259D01*
X153254394Y-88679920D01*
X153179920Y-88754394D01*
X153127259Y-88845606D01*
X153100000Y-88947339D01*
X153100000Y-88953553D01*
X152510015Y-88363568D01*
X152495049Y-88384168D01*
X152490155Y-88393773D01*
X152442178Y-88444567D01*
X152374357Y-88461360D01*
X152308223Y-88438820D01*
X152276570Y-88406365D01*
X152257720Y-88378155D01*
X152257717Y-88378151D01*
X152121848Y-88242282D01*
X152121844Y-88242279D01*
X151962070Y-88135521D01*
X151962068Y-88135520D01*
X151911467Y-88114561D01*
X151857063Y-88070720D01*
X151834998Y-88004426D01*
X151852277Y-87936727D01*
X151903414Y-87889116D01*
X151911467Y-87885439D01*
X151962068Y-87864479D01*
X151962067Y-87864479D01*
X151962073Y-87864477D01*
X152121845Y-87757720D01*
X152257720Y-87621845D01*
X152364477Y-87462073D01*
X152385439Y-87411467D01*
X152429280Y-87357063D01*
X152495574Y-87334998D01*
X152563273Y-87352277D01*
G37*
G04 #@! TD.AperFunction*
M02*
