%TF.GenerationSoftware,KiCad,Pcbnew,10.0.3*%
%TF.CreationDate,2026-08-24T16:19:08+02:00*%
%TF.ProjectId,PCB-02,5043422d-3032-42e6-9b69-6361645f7063,rev?*%
%TF.SameCoordinates,Original*%
%TF.FileFunction,Copper,L1,Top*%
%TF.FilePolarity,Positive*%
%FSLAX46Y46*%
G04 Gerber Fmt 4.6, Leading zero omitted, Abs format (unit mm)*
G04 Created by KiCad (PCBNEW 10.0.3) date 2026-08-24 16:19:08*
%MOMM*%
%LPD*%
G01*
G04 APERTURE LIST*
G04 Aperture macros list*
%AMRoundRect*
0 Rectangle with rounded corners*
0 $1 Rounding radius*
0 $2 $3 $4 $5 $6 $7 $8 $9 X,Y pos of 4 corners*
0 Add a 4 corners polygon primitive as box body*
4,1,4,$2,$3,$4,$5,$6,$7,$8,$9,$2,$3,0*
0 Add four circle primitives for the rounded corners*
1,1,$1+$1,$2,$3*
1,1,$1+$1,$4,$5*
1,1,$1+$1,$6,$7*
1,1,$1+$1,$8,$9*
0 Add four rect primitives between the rounded corners*
20,1,$1+$1,$2,$3,$4,$5,0*
20,1,$1+$1,$4,$5,$6,$7,0*
20,1,$1+$1,$6,$7,$8,$9,0*
20,1,$1+$1,$8,$9,$2,$3,0*%
G04 Aperture macros list end*
%TA.AperFunction,ComponentPad*%
%ADD10R,1.700000X1.700000*%
%TD*%
%TA.AperFunction,ComponentPad*%
%ADD11C,1.700000*%
%TD*%
%TA.AperFunction,SMDPad,CuDef*%
%ADD12RoundRect,0.250000X-0.337500X-0.475000X0.337500X-0.475000X0.337500X0.475000X-0.337500X0.475000X0*%
%TD*%
%TA.AperFunction,SMDPad,CuDef*%
%ADD13RoundRect,0.250000X-0.412500X-0.650000X0.412500X-0.650000X0.412500X0.650000X-0.412500X0.650000X0*%
%TD*%
%TA.AperFunction,ComponentPad*%
%ADD14R,1.350000X1.350000*%
%TD*%
%TA.AperFunction,ComponentPad*%
%ADD15C,1.350000*%
%TD*%
%TA.AperFunction,ViaPad*%
%ADD16C,0.800000*%
%TD*%
%TA.AperFunction,Conductor*%
%ADD17C,0.500000*%
%TD*%
%TA.AperFunction,Conductor*%
%ADD18C,0.300000*%
%TD*%
G04 APERTURE END LIST*
D10*
%TO.P,U1,1,Pin_1_1*%
%TO.N,unconnected-(U1-Pin_1-Pad1)*%
X156220000Y-77120000D03*
D11*
%TO.P,U1,2,Pin_2_2*%
%TO.N,+5V*%
X156220000Y-61880000D03*
%TO.P,U1,3,Pin_3_3*%
%TO.N,unconnected-(U1-Pin_3-Pad3)*%
X158760000Y-77120000D03*
%TO.P,U1,4,Pin_4_4*%
%TO.N,GND*%
X158760000Y-61880000D03*
%TO.P,U1,5,Pin_5_5*%
%TO.N,unconnected-(U1-Pin_5-Pad5)*%
X161300000Y-77120000D03*
%TO.P,U1,6,Pin_6_6*%
%TO.N,unconnected-(U1-Pin_6-Pad6)*%
X161300000Y-61880000D03*
%TO.P,U1,7,Pin_7_7*%
%TO.N,unconnected-(U1-Pin_7-Pad7)*%
X163840000Y-77120000D03*
%TO.P,U1,8,Pin_8_8*%
%TO.N,unconnected-(U1-Pin_8-Pad8)*%
X163840000Y-61880000D03*
%TO.P,U1,9,Pin_9_9*%
%TO.N,unconnected-(U1-Pin_9-Pad9)*%
X166380000Y-77120000D03*
%TO.P,U1,10,Pin_10_10*%
%TO.N,unconnected-(U1-Pin_10-Pad10)*%
X166380000Y-61880000D03*
%TO.P,U1,11,Pin_11_11*%
%TO.N,unconnected-(U1-Pin_11-Pad11)*%
X168920000Y-77120000D03*
%TO.P,U1,12,Pin_12_12*%
%TO.N,unconnected-(U1-Pin_12-Pad12)*%
X168920000Y-61880000D03*
%TO.P,U1,13,Pin_13_13*%
%TO.N,/GPIO20_RX*%
X171460000Y-77120000D03*
%TO.P,U1,14,Pin_14_14*%
%TO.N,unconnected-(U1-Pin_14-Pad14)*%
X171460000Y-61880000D03*
%TO.P,U1,15,Pin_15_15*%
%TO.N,/GPIO21_TX*%
X174000000Y-77120000D03*
%TO.P,U1,16,Pin_16_16*%
%TO.N,unconnected-(U1-Pin_16-Pad16)*%
X174000000Y-61880000D03*
%TD*%
D12*
%TO.P,C1,1*%
%TO.N,+5V*%
X156962500Y-82000000D03*
%TO.P,C1,2*%
%TO.N,GND*%
X159037500Y-82000000D03*
%TD*%
D13*
%TO.P,C2,1*%
%TO.N,+5V*%
X156687500Y-88000000D03*
%TO.P,C2,2*%
%TO.N,GND*%
X159812500Y-88000000D03*
%TD*%
D14*
%TO.P,U2,1,Pin_1_1*%
%TO.N,/GPIO21_TX*%
X153500000Y-89000000D03*
D15*
%TO.P,U2,2,Pin_2_2*%
%TO.N,+5V*%
X151500000Y-89000000D03*
%TO.P,U2,3,Pin_3_3*%
%TO.N,/GPIO20_RX*%
X153500000Y-87000000D03*
%TO.P,U2,4,Pin_4_4*%
%TO.N,unconnected-(U2-Pin_4-Pad4)*%
X151500000Y-87000000D03*
%TO.P,U2,5,Pin_5_5*%
%TO.N,/DP*%
X153500000Y-85000000D03*
%TO.P,U2,6,Pin_6_6*%
%TO.N,unconnected-(U2-Pin_6-Pad6)*%
X151500000Y-85000000D03*
%TO.P,U2,7,Pin_7_7*%
%TO.N,/DM*%
X153500000Y-83000000D03*
%TO.P,U2,8,Pin_8_8*%
%TO.N,GND*%
X151500000Y-83000000D03*
%TD*%
D16*
%TO.N,+5V*%
X155962500Y-83000000D03*
X156687500Y-89000000D03*
%TO.N,GND*%
X160812500Y-89000000D03*
X159037500Y-83000000D03*
%TD*%
%TO.N,+5V*%
D17*
X156687500Y-89000000D02*
X156687500Y-88000000D01*
X155962500Y-83000000D02*
X156962500Y-82000000D01*
%TO.N,GND*%
X159037500Y-83000000D02*
X159037500Y-82000000D01*
X149800000Y-80500000D02*
X149800000Y-82000000D01*
X150800000Y-83000000D02*
X151500000Y-83000000D01*
X156537500Y-79500000D02*
X150800000Y-79500000D01*
X160812500Y-89000000D02*
X159812500Y-88000000D01*
X149800000Y-82000000D02*
X150800000Y-83000000D01*
X150800000Y-79500000D02*
X149800000Y-80500000D01*
X159037500Y-82000000D02*
X156537500Y-79500000D01*
%TO.N,/GPIO20_RX*%
D18*
X155000000Y-85500000D02*
X162000000Y-85500000D01*
X170610000Y-80890000D02*
X170610000Y-77970000D01*
X153500000Y-87000000D02*
X155000000Y-85500000D01*
X162000000Y-85500000D02*
X164000000Y-83500000D01*
X168000000Y-83500000D02*
X170610000Y-80890000D01*
X170610000Y-77970000D02*
X171460000Y-77120000D01*
X164000000Y-83500000D02*
X168000000Y-83500000D01*
%TO.N,/GPIO21_TX*%
X174610000Y-77730000D02*
X174000000Y-77120000D01*
X155500000Y-91500000D02*
X173500000Y-91500000D01*
X174610000Y-90390000D02*
X174610000Y-77730000D01*
X153500000Y-89000000D02*
X154500000Y-90000000D01*
X154500000Y-90000000D02*
X154500000Y-90500000D01*
X173500000Y-91500000D02*
X174610000Y-90390000D01*
X154500000Y-90500000D02*
X155500000Y-91500000D01*
%TD*%
M02*
