%TF.GenerationSoftware,KiCad,Pcbnew,10.0.3*%
%TF.CreationDate,2026-08-24T16:19:08+02:00*%
%TF.ProjectId,PCB-02,5043422d-3032-42e6-9b69-6361645f7063,rev?*%
%TF.SameCoordinates,Original*%
%TF.FileFunction,Legend,Top*%
%TF.FilePolarity,Positive*%
%FSLAX46Y46*%
G04 Gerber Fmt 4.6, Leading zero omitted, Abs format (unit mm)*
G04 Created by KiCad (PCBNEW 10.0.3) date 2026-08-24 16:19:08*
%MOMM*%
%LPD*%
G01*
G04 APERTURE LIST*
%ADD10C,0.120000*%
%ADD11C,0.200000*%
%ADD12C,0.140000*%
%ADD13C,0.100000*%
%ADD14C,0.150000*%
G04 APERTURE END LIST*
D10*
X150990476Y-75663855D02*
X150990476Y-76311474D01*
X150990476Y-76311474D02*
X151028571Y-76387664D01*
X151028571Y-76387664D02*
X151066666Y-76425760D01*
X151066666Y-76425760D02*
X151142857Y-76463855D01*
X151142857Y-76463855D02*
X151295238Y-76463855D01*
X151295238Y-76463855D02*
X151371428Y-76425760D01*
X151371428Y-76425760D02*
X151409523Y-76387664D01*
X151409523Y-76387664D02*
X151447619Y-76311474D01*
X151447619Y-76311474D02*
X151447619Y-75663855D01*
X151790475Y-76425760D02*
X151904761Y-76463855D01*
X151904761Y-76463855D02*
X152095237Y-76463855D01*
X152095237Y-76463855D02*
X152171428Y-76425760D01*
X152171428Y-76425760D02*
X152209523Y-76387664D01*
X152209523Y-76387664D02*
X152247618Y-76311474D01*
X152247618Y-76311474D02*
X152247618Y-76235283D01*
X152247618Y-76235283D02*
X152209523Y-76159093D01*
X152209523Y-76159093D02*
X152171428Y-76120998D01*
X152171428Y-76120998D02*
X152095237Y-76082902D01*
X152095237Y-76082902D02*
X151942856Y-76044807D01*
X151942856Y-76044807D02*
X151866666Y-76006712D01*
X151866666Y-76006712D02*
X151828571Y-75968617D01*
X151828571Y-75968617D02*
X151790475Y-75892426D01*
X151790475Y-75892426D02*
X151790475Y-75816236D01*
X151790475Y-75816236D02*
X151828571Y-75740045D01*
X151828571Y-75740045D02*
X151866666Y-75701950D01*
X151866666Y-75701950D02*
X151942856Y-75663855D01*
X151942856Y-75663855D02*
X152133333Y-75663855D01*
X152133333Y-75663855D02*
X152247618Y-75701950D01*
X152857142Y-76044807D02*
X152971428Y-76082902D01*
X152971428Y-76082902D02*
X153009523Y-76120998D01*
X153009523Y-76120998D02*
X153047619Y-76197188D01*
X153047619Y-76197188D02*
X153047619Y-76311474D01*
X153047619Y-76311474D02*
X153009523Y-76387664D01*
X153009523Y-76387664D02*
X152971428Y-76425760D01*
X152971428Y-76425760D02*
X152895238Y-76463855D01*
X152895238Y-76463855D02*
X152590476Y-76463855D01*
X152590476Y-76463855D02*
X152590476Y-75663855D01*
X152590476Y-75663855D02*
X152857142Y-75663855D01*
X152857142Y-75663855D02*
X152933333Y-75701950D01*
X152933333Y-75701950D02*
X152971428Y-75740045D01*
X152971428Y-75740045D02*
X153009523Y-75816236D01*
X153009523Y-75816236D02*
X153009523Y-75892426D01*
X153009523Y-75892426D02*
X152971428Y-75968617D01*
X152971428Y-75968617D02*
X152933333Y-76006712D01*
X152933333Y-76006712D02*
X152857142Y-76044807D01*
X152857142Y-76044807D02*
X152590476Y-76044807D01*
X173895283Y-74376191D02*
X173895283Y-73995238D01*
X174123855Y-74452381D02*
X173323855Y-74185714D01*
X173323855Y-74185714D02*
X174123855Y-73919048D01*
X174123855Y-73652381D02*
X173323855Y-73652381D01*
X173323855Y-73652381D02*
X174123855Y-73195238D01*
X174123855Y-73195238D02*
X173323855Y-73195238D01*
X173323855Y-72928572D02*
X173323855Y-72471429D01*
X174123855Y-72700001D02*
X173323855Y-72700001D01*
X174123855Y-71595238D02*
X173323855Y-71595238D01*
X174123855Y-71138095D02*
X173666712Y-71480953D01*
X173323855Y-71138095D02*
X173780998Y-71595238D01*
X173704807Y-70795238D02*
X173704807Y-70528572D01*
X174123855Y-70414286D02*
X174123855Y-70795238D01*
X174123855Y-70795238D02*
X173323855Y-70795238D01*
X173323855Y-70795238D02*
X173323855Y-70414286D01*
X173704807Y-70071428D02*
X173704807Y-69804762D01*
X174123855Y-69690476D02*
X174123855Y-70071428D01*
X174123855Y-70071428D02*
X173323855Y-70071428D01*
X173323855Y-70071428D02*
X173323855Y-69690476D01*
X174123855Y-69347618D02*
X173323855Y-69347618D01*
X173323855Y-69347618D02*
X173323855Y-69042856D01*
X173323855Y-69042856D02*
X173361950Y-68966666D01*
X173361950Y-68966666D02*
X173400045Y-68928571D01*
X173400045Y-68928571D02*
X173476236Y-68890475D01*
X173476236Y-68890475D02*
X173590521Y-68890475D01*
X173590521Y-68890475D02*
X173666712Y-68928571D01*
X173666712Y-68928571D02*
X173704807Y-68966666D01*
X173704807Y-68966666D02*
X173742902Y-69042856D01*
X173742902Y-69042856D02*
X173742902Y-69347618D01*
X174047664Y-67480951D02*
X174085760Y-67519047D01*
X174085760Y-67519047D02*
X174123855Y-67633332D01*
X174123855Y-67633332D02*
X174123855Y-67709523D01*
X174123855Y-67709523D02*
X174085760Y-67823809D01*
X174085760Y-67823809D02*
X174009569Y-67899999D01*
X174009569Y-67899999D02*
X173933379Y-67938094D01*
X173933379Y-67938094D02*
X173780998Y-67976190D01*
X173780998Y-67976190D02*
X173666712Y-67976190D01*
X173666712Y-67976190D02*
X173514331Y-67938094D01*
X173514331Y-67938094D02*
X173438140Y-67899999D01*
X173438140Y-67899999D02*
X173361950Y-67823809D01*
X173361950Y-67823809D02*
X173323855Y-67709523D01*
X173323855Y-67709523D02*
X173323855Y-67633332D01*
X173323855Y-67633332D02*
X173361950Y-67519047D01*
X173361950Y-67519047D02*
X173400045Y-67480951D01*
X174123855Y-66757142D02*
X174123855Y-67138094D01*
X174123855Y-67138094D02*
X173323855Y-67138094D01*
X173704807Y-66490475D02*
X173704807Y-66223809D01*
X174123855Y-66109523D02*
X174123855Y-66490475D01*
X174123855Y-66490475D02*
X173323855Y-66490475D01*
X173323855Y-66490475D02*
X173323855Y-66109523D01*
X173895283Y-65804761D02*
X173895283Y-65423808D01*
X174123855Y-65880951D02*
X173323855Y-65614284D01*
X173323855Y-65614284D02*
X174123855Y-65347618D01*
X174123855Y-64623808D02*
X173742902Y-64890475D01*
X174123855Y-65080951D02*
X173323855Y-65080951D01*
X173323855Y-65080951D02*
X173323855Y-64776189D01*
X173323855Y-64776189D02*
X173361950Y-64699999D01*
X173361950Y-64699999D02*
X173400045Y-64661904D01*
X173400045Y-64661904D02*
X173476236Y-64623808D01*
X173476236Y-64623808D02*
X173590521Y-64623808D01*
X173590521Y-64623808D02*
X173666712Y-64661904D01*
X173666712Y-64661904D02*
X173704807Y-64699999D01*
X173704807Y-64699999D02*
X173742902Y-64776189D01*
X173742902Y-64776189D02*
X173742902Y-65080951D01*
D11*
X155383333Y-58698480D02*
X155383333Y-57598480D01*
X155383333Y-57598480D02*
X155802381Y-57598480D01*
X155802381Y-57598480D02*
X155907143Y-57650861D01*
X155907143Y-57650861D02*
X155959524Y-57703242D01*
X155959524Y-57703242D02*
X156011905Y-57808004D01*
X156011905Y-57808004D02*
X156011905Y-57965147D01*
X156011905Y-57965147D02*
X155959524Y-58069909D01*
X155959524Y-58069909D02*
X155907143Y-58122290D01*
X155907143Y-58122290D02*
X155802381Y-58174671D01*
X155802381Y-58174671D02*
X155383333Y-58174671D01*
X157111905Y-58593719D02*
X157059524Y-58646100D01*
X157059524Y-58646100D02*
X156902381Y-58698480D01*
X156902381Y-58698480D02*
X156797619Y-58698480D01*
X156797619Y-58698480D02*
X156640476Y-58646100D01*
X156640476Y-58646100D02*
X156535714Y-58541338D01*
X156535714Y-58541338D02*
X156483333Y-58436576D01*
X156483333Y-58436576D02*
X156430952Y-58227052D01*
X156430952Y-58227052D02*
X156430952Y-58069909D01*
X156430952Y-58069909D02*
X156483333Y-57860385D01*
X156483333Y-57860385D02*
X156535714Y-57755623D01*
X156535714Y-57755623D02*
X156640476Y-57650861D01*
X156640476Y-57650861D02*
X156797619Y-57598480D01*
X156797619Y-57598480D02*
X156902381Y-57598480D01*
X156902381Y-57598480D02*
X157059524Y-57650861D01*
X157059524Y-57650861D02*
X157111905Y-57703242D01*
X157950000Y-58122290D02*
X158107143Y-58174671D01*
X158107143Y-58174671D02*
X158159524Y-58227052D01*
X158159524Y-58227052D02*
X158211905Y-58331814D01*
X158211905Y-58331814D02*
X158211905Y-58488957D01*
X158211905Y-58488957D02*
X158159524Y-58593719D01*
X158159524Y-58593719D02*
X158107143Y-58646100D01*
X158107143Y-58646100D02*
X158002381Y-58698480D01*
X158002381Y-58698480D02*
X157583333Y-58698480D01*
X157583333Y-58698480D02*
X157583333Y-57598480D01*
X157583333Y-57598480D02*
X157950000Y-57598480D01*
X157950000Y-57598480D02*
X158054762Y-57650861D01*
X158054762Y-57650861D02*
X158107143Y-57703242D01*
X158107143Y-57703242D02*
X158159524Y-57808004D01*
X158159524Y-57808004D02*
X158159524Y-57912766D01*
X158159524Y-57912766D02*
X158107143Y-58017528D01*
X158107143Y-58017528D02*
X158054762Y-58069909D01*
X158054762Y-58069909D02*
X157950000Y-58122290D01*
X157950000Y-58122290D02*
X157583333Y-58122290D01*
X158683333Y-58279433D02*
X159521429Y-58279433D01*
X160254762Y-57598480D02*
X160359524Y-57598480D01*
X160359524Y-57598480D02*
X160464286Y-57650861D01*
X160464286Y-57650861D02*
X160516667Y-57703242D01*
X160516667Y-57703242D02*
X160569048Y-57808004D01*
X160569048Y-57808004D02*
X160621429Y-58017528D01*
X160621429Y-58017528D02*
X160621429Y-58279433D01*
X160621429Y-58279433D02*
X160569048Y-58488957D01*
X160569048Y-58488957D02*
X160516667Y-58593719D01*
X160516667Y-58593719D02*
X160464286Y-58646100D01*
X160464286Y-58646100D02*
X160359524Y-58698480D01*
X160359524Y-58698480D02*
X160254762Y-58698480D01*
X160254762Y-58698480D02*
X160150000Y-58646100D01*
X160150000Y-58646100D02*
X160097619Y-58593719D01*
X160097619Y-58593719D02*
X160045238Y-58488957D01*
X160045238Y-58488957D02*
X159992857Y-58279433D01*
X159992857Y-58279433D02*
X159992857Y-58017528D01*
X159992857Y-58017528D02*
X160045238Y-57808004D01*
X160045238Y-57808004D02*
X160097619Y-57703242D01*
X160097619Y-57703242D02*
X160150000Y-57650861D01*
X160150000Y-57650861D02*
X160254762Y-57598480D01*
X161040476Y-57703242D02*
X161092857Y-57650861D01*
X161092857Y-57650861D02*
X161197619Y-57598480D01*
X161197619Y-57598480D02*
X161459524Y-57598480D01*
X161459524Y-57598480D02*
X161564286Y-57650861D01*
X161564286Y-57650861D02*
X161616667Y-57703242D01*
X161616667Y-57703242D02*
X161669048Y-57808004D01*
X161669048Y-57808004D02*
X161669048Y-57912766D01*
X161669048Y-57912766D02*
X161616667Y-58069909D01*
X161616667Y-58069909D02*
X160988095Y-58698480D01*
X160988095Y-58698480D02*
X161669048Y-58698480D01*
D12*
X165392856Y-58180505D02*
X165349999Y-58137648D01*
X165349999Y-58137648D02*
X165264285Y-58094791D01*
X165264285Y-58094791D02*
X165178570Y-58094791D01*
X165178570Y-58094791D02*
X165092856Y-58137648D01*
X165092856Y-58137648D02*
X165049999Y-58180505D01*
X165049999Y-58180505D02*
X165007142Y-58266220D01*
X165007142Y-58266220D02*
X165007142Y-58351934D01*
X165007142Y-58351934D02*
X165049999Y-58437648D01*
X165049999Y-58437648D02*
X165092856Y-58480505D01*
X165092856Y-58480505D02*
X165178570Y-58523362D01*
X165178570Y-58523362D02*
X165264285Y-58523362D01*
X165264285Y-58523362D02*
X165349999Y-58480505D01*
X165349999Y-58480505D02*
X165392856Y-58437648D01*
X165392856Y-58094791D02*
X165392856Y-58437648D01*
X165392856Y-58437648D02*
X165435713Y-58480505D01*
X165435713Y-58480505D02*
X165478570Y-58480505D01*
X165478570Y-58480505D02*
X165564285Y-58437648D01*
X165564285Y-58437648D02*
X165607142Y-58351934D01*
X165607142Y-58351934D02*
X165607142Y-58137648D01*
X165607142Y-58137648D02*
X165521428Y-58009077D01*
X165521428Y-58009077D02*
X165392856Y-57923362D01*
X165392856Y-57923362D02*
X165221428Y-57880505D01*
X165221428Y-57880505D02*
X165049999Y-57923362D01*
X165049999Y-57923362D02*
X164921428Y-58009077D01*
X164921428Y-58009077D02*
X164835713Y-58137648D01*
X164835713Y-58137648D02*
X164792856Y-58309077D01*
X164792856Y-58309077D02*
X164835713Y-58480505D01*
X164835713Y-58480505D02*
X164921428Y-58609077D01*
X164921428Y-58609077D02*
X165049999Y-58694791D01*
X165049999Y-58694791D02*
X165221428Y-58737648D01*
X165221428Y-58737648D02*
X165392856Y-58694791D01*
X165392856Y-58694791D02*
X165521428Y-58609077D01*
X166378571Y-58009077D02*
X166378571Y-58737648D01*
X166378571Y-58737648D02*
X166335713Y-58823362D01*
X166335713Y-58823362D02*
X166292856Y-58866220D01*
X166292856Y-58866220D02*
X166207142Y-58909077D01*
X166207142Y-58909077D02*
X166078571Y-58909077D01*
X166078571Y-58909077D02*
X165992856Y-58866220D01*
X166378571Y-58566220D02*
X166292856Y-58609077D01*
X166292856Y-58609077D02*
X166121428Y-58609077D01*
X166121428Y-58609077D02*
X166035713Y-58566220D01*
X166035713Y-58566220D02*
X165992856Y-58523362D01*
X165992856Y-58523362D02*
X165949999Y-58437648D01*
X165949999Y-58437648D02*
X165949999Y-58180505D01*
X165949999Y-58180505D02*
X165992856Y-58094791D01*
X165992856Y-58094791D02*
X166035713Y-58051934D01*
X166035713Y-58051934D02*
X166121428Y-58009077D01*
X166121428Y-58009077D02*
X166292856Y-58009077D01*
X166292856Y-58009077D02*
X166378571Y-58051934D01*
X167149999Y-58566220D02*
X167064285Y-58609077D01*
X167064285Y-58609077D02*
X166892857Y-58609077D01*
X166892857Y-58609077D02*
X166807142Y-58566220D01*
X166807142Y-58566220D02*
X166764285Y-58480505D01*
X166764285Y-58480505D02*
X166764285Y-58137648D01*
X166764285Y-58137648D02*
X166807142Y-58051934D01*
X166807142Y-58051934D02*
X166892857Y-58009077D01*
X166892857Y-58009077D02*
X167064285Y-58009077D01*
X167064285Y-58009077D02*
X167149999Y-58051934D01*
X167149999Y-58051934D02*
X167192857Y-58137648D01*
X167192857Y-58137648D02*
X167192857Y-58223362D01*
X167192857Y-58223362D02*
X166764285Y-58309077D01*
X167578571Y-58609077D02*
X167578571Y-58009077D01*
X167578571Y-58180505D02*
X167621428Y-58094791D01*
X167621428Y-58094791D02*
X167664286Y-58051934D01*
X167664286Y-58051934D02*
X167750000Y-58009077D01*
X167750000Y-58009077D02*
X167835714Y-58009077D01*
X168521429Y-58609077D02*
X168521429Y-58137648D01*
X168521429Y-58137648D02*
X168478571Y-58051934D01*
X168478571Y-58051934D02*
X168392857Y-58009077D01*
X168392857Y-58009077D02*
X168221429Y-58009077D01*
X168221429Y-58009077D02*
X168135714Y-58051934D01*
X168521429Y-58566220D02*
X168435714Y-58609077D01*
X168435714Y-58609077D02*
X168221429Y-58609077D01*
X168221429Y-58609077D02*
X168135714Y-58566220D01*
X168135714Y-58566220D02*
X168092857Y-58480505D01*
X168092857Y-58480505D02*
X168092857Y-58394791D01*
X168092857Y-58394791D02*
X168135714Y-58309077D01*
X168135714Y-58309077D02*
X168221429Y-58266220D01*
X168221429Y-58266220D02*
X168435714Y-58266220D01*
X168435714Y-58266220D02*
X168521429Y-58223362D01*
X168821429Y-58009077D02*
X169164286Y-58009077D01*
X168950000Y-58609077D02*
X168950000Y-57837648D01*
X168950000Y-57837648D02*
X168992857Y-57751934D01*
X168992857Y-57751934D02*
X169078572Y-57709077D01*
X169078572Y-57709077D02*
X169164286Y-57709077D01*
X169335715Y-58009077D02*
X169678572Y-58009077D01*
X169464286Y-58609077D02*
X169464286Y-57837648D01*
X169464286Y-57837648D02*
X169507143Y-57751934D01*
X169507143Y-57751934D02*
X169592858Y-57709077D01*
X169592858Y-57709077D02*
X169678572Y-57709077D01*
X169850001Y-58009077D02*
X170192858Y-58009077D01*
X169978572Y-57709077D02*
X169978572Y-58480505D01*
X169978572Y-58480505D02*
X170021429Y-58566220D01*
X170021429Y-58566220D02*
X170107144Y-58609077D01*
X170107144Y-58609077D02*
X170192858Y-58609077D01*
X170835715Y-58566220D02*
X170750001Y-58609077D01*
X170750001Y-58609077D02*
X170578573Y-58609077D01*
X170578573Y-58609077D02*
X170492858Y-58566220D01*
X170492858Y-58566220D02*
X170450001Y-58480505D01*
X170450001Y-58480505D02*
X170450001Y-58137648D01*
X170450001Y-58137648D02*
X170492858Y-58051934D01*
X170492858Y-58051934D02*
X170578573Y-58009077D01*
X170578573Y-58009077D02*
X170750001Y-58009077D01*
X170750001Y-58009077D02*
X170835715Y-58051934D01*
X170835715Y-58051934D02*
X170878573Y-58137648D01*
X170878573Y-58137648D02*
X170878573Y-58223362D01*
X170878573Y-58223362D02*
X170450001Y-58309077D01*
X171221430Y-58566220D02*
X171307144Y-58609077D01*
X171307144Y-58609077D02*
X171478573Y-58609077D01*
X171478573Y-58609077D02*
X171564287Y-58566220D01*
X171564287Y-58566220D02*
X171607144Y-58480505D01*
X171607144Y-58480505D02*
X171607144Y-58437648D01*
X171607144Y-58437648D02*
X171564287Y-58351934D01*
X171564287Y-58351934D02*
X171478573Y-58309077D01*
X171478573Y-58309077D02*
X171350002Y-58309077D01*
X171350002Y-58309077D02*
X171264287Y-58266220D01*
X171264287Y-58266220D02*
X171221430Y-58180505D01*
X171221430Y-58180505D02*
X171221430Y-58137648D01*
X171221430Y-58137648D02*
X171264287Y-58051934D01*
X171264287Y-58051934D02*
X171350002Y-58009077D01*
X171350002Y-58009077D02*
X171478573Y-58009077D01*
X171478573Y-58009077D02*
X171564287Y-58051934D01*
D13*
X164198095Y-68837419D02*
X164198095Y-69646942D01*
X164198095Y-69646942D02*
X164245714Y-69742180D01*
X164245714Y-69742180D02*
X164293333Y-69789800D01*
X164293333Y-69789800D02*
X164388571Y-69837419D01*
X164388571Y-69837419D02*
X164579047Y-69837419D01*
X164579047Y-69837419D02*
X164674285Y-69789800D01*
X164674285Y-69789800D02*
X164721904Y-69742180D01*
X164721904Y-69742180D02*
X164769523Y-69646942D01*
X164769523Y-69646942D02*
X164769523Y-68837419D01*
X165769523Y-69837419D02*
X165198095Y-69837419D01*
X165483809Y-69837419D02*
X165483809Y-68837419D01*
X165483809Y-68837419D02*
X165388571Y-68980276D01*
X165388571Y-68980276D02*
X165293333Y-69075514D01*
X165293333Y-69075514D02*
X165198095Y-69123133D01*
D14*
X157833333Y-80679580D02*
X157785714Y-80727200D01*
X157785714Y-80727200D02*
X157642857Y-80774819D01*
X157642857Y-80774819D02*
X157547619Y-80774819D01*
X157547619Y-80774819D02*
X157404762Y-80727200D01*
X157404762Y-80727200D02*
X157309524Y-80631961D01*
X157309524Y-80631961D02*
X157261905Y-80536723D01*
X157261905Y-80536723D02*
X157214286Y-80346247D01*
X157214286Y-80346247D02*
X157214286Y-80203390D01*
X157214286Y-80203390D02*
X157261905Y-80012914D01*
X157261905Y-80012914D02*
X157309524Y-79917676D01*
X157309524Y-79917676D02*
X157404762Y-79822438D01*
X157404762Y-79822438D02*
X157547619Y-79774819D01*
X157547619Y-79774819D02*
X157642857Y-79774819D01*
X157642857Y-79774819D02*
X157785714Y-79822438D01*
X157785714Y-79822438D02*
X157833333Y-79870057D01*
X158785714Y-80774819D02*
X158214286Y-80774819D01*
X158500000Y-80774819D02*
X158500000Y-79774819D01*
X158500000Y-79774819D02*
X158404762Y-79917676D01*
X158404762Y-79917676D02*
X158309524Y-80012914D01*
X158309524Y-80012914D02*
X158214286Y-80060533D01*
X158083333Y-86509580D02*
X158035714Y-86557200D01*
X158035714Y-86557200D02*
X157892857Y-86604819D01*
X157892857Y-86604819D02*
X157797619Y-86604819D01*
X157797619Y-86604819D02*
X157654762Y-86557200D01*
X157654762Y-86557200D02*
X157559524Y-86461961D01*
X157559524Y-86461961D02*
X157511905Y-86366723D01*
X157511905Y-86366723D02*
X157464286Y-86176247D01*
X157464286Y-86176247D02*
X157464286Y-86033390D01*
X157464286Y-86033390D02*
X157511905Y-85842914D01*
X157511905Y-85842914D02*
X157559524Y-85747676D01*
X157559524Y-85747676D02*
X157654762Y-85652438D01*
X157654762Y-85652438D02*
X157797619Y-85604819D01*
X157797619Y-85604819D02*
X157892857Y-85604819D01*
X157892857Y-85604819D02*
X158035714Y-85652438D01*
X158035714Y-85652438D02*
X158083333Y-85700057D01*
X158464286Y-85700057D02*
X158511905Y-85652438D01*
X158511905Y-85652438D02*
X158607143Y-85604819D01*
X158607143Y-85604819D02*
X158845238Y-85604819D01*
X158845238Y-85604819D02*
X158940476Y-85652438D01*
X158940476Y-85652438D02*
X158988095Y-85700057D01*
X158988095Y-85700057D02*
X159035714Y-85795295D01*
X159035714Y-85795295D02*
X159035714Y-85890533D01*
X159035714Y-85890533D02*
X158988095Y-86033390D01*
X158988095Y-86033390D02*
X158416667Y-86604819D01*
X158416667Y-86604819D02*
X159035714Y-86604819D01*
%TO.C,C1*%
D10*
X157738748Y-81265000D02*
X158261252Y-81265000D01*
X157738748Y-82735000D02*
X158261252Y-82735000D01*
%TO.C,C2*%
X157538748Y-87090000D02*
X158961252Y-87090000D01*
X157538748Y-88910000D02*
X158961252Y-88910000D01*
%TO.C,U2*%
X150390000Y-90110000D02*
X150390000Y-81890000D01*
X152500000Y-88000000D02*
X152500000Y-90110000D01*
X152500000Y-90110000D02*
X150390000Y-90110000D01*
X154610000Y-81890000D02*
X150390000Y-81890000D01*
X154610000Y-88000000D02*
X152500000Y-88000000D01*
X154610000Y-88000000D02*
X154610000Y-81890000D01*
X154610000Y-89000000D02*
X154610000Y-90110000D01*
X154610000Y-90110000D02*
X153500000Y-90110000D01*
%TD*%
M02*
